<?xml version="1.0" encoding="UTF-8"?>
<svg id="_레이어_1" data-name="레이어_1" xmlns="http://www.w3.org/2000/svg" version="1.1" viewBox="0 0 500 500">
  <!-- Generator: Adobe Illustrator 29.8.5, SVG Export Plug-In . SVG Version: 2.1.1 Build 2)  -->
  <path d="M252.18,201.4c.47-3.62,1.11-7.36,1.87-9.4,0,0,23.1,6.41,31.79,3.11v-9.52s-35.28-5.96-34.07-31.79h31.16l-.32-6.28s-15.17-6.22-25.89-7.8c0,0-15.17-18.27-23.99-21.32,0,0,6.98-11.93,6.09-18.85l-14.09,9.45s-29.89-1.21-29.89-1.65c.06-.44,28.3-26.46,25.83-64.79l-4.57,3.49c0,1.14-.32,32.17-35.28,49.11h-4s1.01-10.11.14-20.82c-.36-4.47-1.72-8.8-3.78-12.78l-2.97-5.74h-5.01s3.24,21.7-.82,36.61l-5.14,2.35-2.09,14.66-18.34,5.2-4,14.85-5.65,4.12-2.16,19.42-5.01,1.4v5.77l-4.57,1.59c-.13-.32-11.49-5.39-11.87-11.55,0,0-1.78,17.39,3.87,21.38l4.38,9.64,5.71,1.52s2.92,7.93,3.68,7.93c.7-.06,5.96.06,5.96.06l1.08-14.28,5.71-.76,2.73-8.57,4.89-.44s.82-6.66,1.14-6.73c.25-.13,7.93-1.21,7.93-1.21l1.08-6.98,3.24.38,1.97,14.28-8.25.25-1.4,10.09-4.63,1.46-2.42,15.8,22.85.07s4.09-6.89-4.57-14.78l5.84-3.68.89-7.55s20.96-2.45,10.69-17.32c-.69-1-.32-2.35.82-2.75,1.45-.49,3.33-1.14,4.91-1.72,1.94-.71,3.37-2.34,3.83-4.35.43-1.88.93-3.94,1.07-3.94.32,0,16.62-3.81,21.32,1.97v2.22l20.56,1.78v15.93l6.16-1.14s8.82,47.34-1.46,57.17l-3.36,1.84s2.22,17.07-14.85,19.16l25.51,2.54s-2.16,5.27-1.14,5.27h12.44l-1.65,8.25s11.8.63,13.33,0c1.46-.57,4.76-7.74,4.76-7.74l3.49-1.52s.68-.6,1.53-1.37c2.4-2.17,5.32-3.71,8.47-4.45,3.62-.86,7.83-1.86,7.83-1.86,0,0-17.28-3.45-29.29-11.44-7.55-5.02-11.2-14.27-10.02-23.26ZM120.16,168.84c0-.13,3.74.57,4.76-3.3,0,0,1.65,8.63-4.76,3.3ZM141.42,141.95c-.53-.08,1.18-4.49,6.19-10.01l6.5-.67s1.75,12.78-12.69,10.68Z"/>
  <path d="M472.84,235.65s-12.18-148.29-165.74-207.05c0,0-72.84-20.94-107.62-4.06,0,0,77.41,1.84,77.86,46.89l3.55,2.28s3.93-9.2,0-25.45c0,0,58,24.49,56.79,77.86,0,0,9.01,64.91-19.29,101.53,0,0-13.07,40.55-53.43,32.43,0,0-89.72-20.56-98.61,18.85,0,0-8.76,20.18-6.41,44.16l-9.65-4.51s-8.76-30.01,12.18-53.24c0,0,13.33-15.61,29.06-22.15,9.2-3.87,17.64-9.64,23.16-18.02,6.22-9.45,11.36-23.61,9.01-43.72l-1.02-21.96s-11.49-9.96-28.36-9.33c0,0,11.74,5.77,9.01,23.99,0,0-4.12,24.81-26.65,39.28-9.45,6.09-17.58,14.15-24.49,23.03-12.25,15.8-26.59,38.83-24.37,58.06,0,0-.76,40.48,48.86,56.28,0,0,11.74,2.6,14.53,11.42,0,0,2.79-13.52-3.87-16.5,0,0,13.39-3.81,20.88-.44,7.49,3.36,14.21,4.31,15.55,11.17l1.65,8.44s55.71-8.38,60.73-65.99c0,0-4.25,8.06-6.98,8.25h-14.72s-24.24-24.43-55.59,3.11l1.02,2.98s32.87-7.42,41.94,1.14l-.57,13.45s-32.81,6.03-66.5-1.84c0,0-6.47-44.16,37.75-48.54,0,0,32.55-2.09,44.35,8.25,0,0,53.3,24.56,82.93-48.29l8.63-2.86s-4.06,63.71-30.39,94.48c0,0-45.69,74.11-120.56,116.63,0,0-34.14,27.16-63.14,37.82,0,0,52.54,6.6,135.41-53.17,0,0,64.72-51.97,76.72-88.64l11.49-2.86s3.11,97.72-88.33,140.68l22.34,3.3s76.91-34.9,121.45-154.83l10.66-.63s9.58,51.78-39.02,114.98c0,0,15.36-1.21,15.8-2.41.38-1.27,76.97-85.09,61.99-204.26ZM429.37,236.92s-.51,47.34-34.39,82.81c.7-3.11,14.59-66.63-32.23-95.88l-.51-12.18c2.28.63,39.47,22.72,40.17,34.65l9.9,1.59s6.92-91.69-52.41-146.07c4.38,2.86,78.75,52.67,69.48,135.09Z"/>
  <path d="M50.96,324.76s3.59-8.21,20.26-6.67c0,0-32.57-18.98-10.13-85.65,0,0-48.46,38.63-33.84,119.13,0,0,4.71-9.7,13.6-10.7,0,0,43.13,107.72,131.55,116.64l36.62-24.33s-92.26,6.51-158.06-108.42Z"/>
  <path d="M97.55,311.07s42.39,58.06,95.57,60.42c0,0,55.54,11.8,96.19-26.51h9.79s-38.08,65.92-99.01,52.59c0,0-94.11-13.33-102.54-86.5Z"/>
  <path d="M235.42,473.35c-.59-.04,45.66-19.62,49.09-36.62h22.54s-24.65,39.64-71.63,36.62Z"/>
</svg>