<?xml version="1.0" encoding="UTF-8"?>
<svg id="_레이어_1" data-name="레이어_1" xmlns="http://www.w3.org/2000/svg" version="1.1" viewBox="0 0 500 500">
  <!-- Generator: Adobe Illustrator 29.8.5, SVG Export Plug-In . SVG Version: 2.1.1 Build 2)  -->
  <defs>
    <style>
      .st0 {
        fill: #231815;
      }
    </style>
  </defs>
  <path class="st0" d="M439.24,196.13c-15.06-34.29-36.06-23.7-36.06-23.7-23.52-85.09-107.09-107.93-107.09-107.93,7.02-21.42-19.71-33.21-19.71-33.21-10.11-1.95-25.39-17.83-25.39-17.83-8.46,10.35-23.48,18.75-23.48,18.75-27.01,14.68-22.5,31.79-22.5,31.79-95.05,27.35-109.17,108.07-109.17,108.07-23.68-5.84-32.15,16.12-32.15,16.12-7.2,16.91-18.83,28.4-18.83,28.4v1.3c13.24,11.93,16.74,20.19,16.74,20.19,16.56,30.24,33.09,24.77,33.09,24.77,24.31,83.6,92.27,104.96,92.27,104.96l-.2-16.95c-14.8-4.41-33.77-20.17-33.77-20.17l3.01-9.24-13.7-8.42-3.97,4.53c-19.45-16.32-32.63-56.51-32.63-56.51l6.42-4.87c4.61,23.56,20.51,41.11,20.51,41.11,5.01,14.26,28.42,23.1,28.42,23.18l26.41-.6c15.24-8.1,19.11-21.26,19.11-21.26-1.32-13.48-17.31-21.88-17.31-21.88-7.04-2.17-13.26,12.61-13.26,12.61-2.85,12.39,10.27,10.09,10.27,10.09l-1,3.51-3.01.2c-13.1-1.32-10.31-14.48-10.31-14.48-3.19-7.86,12.63-16.62,12.63-16.62l-.54-17.67c-39.2.52-38.4,26.05-38.4,26.05-3.15,16.46,18.73,28.58,18.73,28.58-11.15-1.06-20.6-16.08-20.6-16.08-10.23-19.27,7.04-30.58,7.04-30.58,17.03-15.8,32.71-12.75,32.71-12.75,2.79-9.97-1.6-13.56-1.6-13.56-47.71,2.67-53.42,42.65-53.42,42.65-9.45-11.81-13.96-45.18-13.96-45.18-7.18-35.21,12.75-76.02,12.75-76.02,18.75-40.93,60.22-60.9,60.22-60.9,49.73-26.33,98.99-9.67,98.99-9.67,43.34,8.74,74.04,52.22,74.04,52.22,43.98,60.34,16.76,126.04,16.76,126.04l-9.85-5.76c12.85-61.4-4.15-86.35-4.15-86.35-14.92-41.39-55.77-61.89-55.77-61.89-55.53-30.36-109.63-3.63-109.63-3.63-40.85,18.17-54.08,48.25-54.08,48.25-23.74,33.73-18.41,70.29-18.41,70.29,1.48,24.59,7.68,24.1,7.68,24.1,26.51,0,30.34-33.79,30.34-33.79h-7.02c-6.7,8.1-10.83-3.81-10.83-3.81v-7.74c-.32-35.52,24.77-62.71,24.77-62.71,20.98-24.31,45.6-29.2,45.6-29.2-47.39,24.77-28.86,73.3-28.86,73.3,10.09,22.94,27.59,14.38,27.59,14.38,19.31-9.37,17.29-15.8,17.29-15.8l-10.29-.22c-5.21-3.43.86-6.92.86-6.92,8-2.23,9.28,4.49,9.28,4.49h.64c10.51-5.15,27.45-5.29,27.45-5.29l19.43-22.5,15.72-.5c-1.56,8.06-16.87,18.71-16.87,18.71-3.01,3.37-12.85,1.86-12.85,1.86-8.72,19.09,41.37,31.52,41.37,31.52l-.36,35.52,16.81,10.59c18.15,11.07,22.02,28.3,22.02,28.3l-11.09,12.57c-3.29,12.09,3.57,14.24,3.57,14.24,12.29-3.95,26.17-36.04,26.17-36.04l3.65,3.29.2,12.29,11.01,6.3c9.95,8.36,6.02,30.86,6.02,30.86-2.87,11.09-30.24,18.67-30.24,18.67-2.93,1.06-1.5-1.86-1.5-1.86,15.44-4.85,25.07-12.27,25.07-12.27,9.22-13.05,1.86-28.22,1.86-28.22-6.62-11.01-13.64-5.21-13.64-5.21l-10.33,11.57c-22.46,9.99-26.35-2.45-26.35-2.45-9.06-14.4,5.33-20.25,5.33-20.25,8.9-1.02,3.67-9.75,3.67-9.75l-30.06-25.41-3.05,1.58-.56,7.56,22.46,19.05c.14,3.93-1.24,2.91-1.24,2.91l-22.46-15.1-2.63,46.06c6.3,2.57,6.24,12.39,6.24,12.39-2.23,15.18-14.56,21.68-14.56,21.68l.04,6.14,4.05,3.83c-1.24,9.71-13.14,14.38-13.32,14.38s-1.1-1.76-1.1-1.76c-1.72-5.62.44-4.93.44-4.93,5.41,4.13,9.1-2.47,9.1-2.47,2.29-10.95-6.58-11.75-6.58-11.75-11.03.74-16.38,16.74-16.38,16.74l1.16,4.07-43.66,40.83c-.54-5.05,40.65-43,40.65-43-.18-18.09,13.8-21.86,13.8-21.86,8-.98,8.7-3.29,8.7-3.29,23.7-12.69,8.76-28.64,8.76-28.64l3.09-104.6c-31.18-9.3-42.94-25.61-42.94-25.61-5.8-7.58-15.36,2.23-15.36,2.23-15.6,20.84-48.79,24.95-48.79,24.95l1.85,67.1,8.56,7.74c12.57,18.21-2.37,26.21-2.37,26.21-5.13.86-4.33,18.19-4.33,18.19-5.33,1-15.46-6.16-15.46-6.16l-6.86,2.83c3.29,7.04,22.22,12.89,22.22,12.89l-.2,4.23c-11.33-1.66-36.56-20.86-36.56-20.86l-3.43,3.87c2.63,8.02,40.67,24.95,40.67,24.95l1.84,46.85c.4,4.17,3.11,3.97,3.11,3.97l16.58.3c-13.48,18.91-15.62,40.05-15.62,40.05-7.46,23.06-.24,33.23-.24,33.23,17.59,19.31,35.17,1.04,35.17,1.04,12.21-12.95,2.89-24.29,2.89-24.29-8.36-6.14-7-7.4-7-7.4,13.14-19.71,59.22-39.47,59.22-39.47,32.43-16.6,52.52-32.83,52.52-32.83,5.78-3.15,5.82-17.23,5.82-17.61l5.8-4.57c28.72-2.33,37.8-26.27,37.8-26.27,8.46-32.53-13.64-54.83-13.64-54.83,1.46-.52,5.33-12.83,5.33-12.83,1.46,2.15,8,5.33,8,5.33l-4.51,13.98,7.12,4.13c2.35-2.43,5.96-16.5,5.96-16.5,19.93.52,29.58-20.33,29.58-20.33,10.15-18.07,20.45-26.37,20.45-26.37-4.69-2.45-15.46-20.53-15.46-20.53ZM107.11,225.85s-9.89,4.77-14.58-6.42c0,0-2.31-8.9,11.07-10.87,1.3-.18,3.51,3.05,3.51,3.05v14.24ZM109.1,178.84l-3.81-3.61c11.59-38.3,34.21-57.17,34.21-57.17l1.89,2.25c-18.63,13.32-32.29,58.54-32.29,58.54ZM156.87,106.07l-1.18-.36s-.66-2.15-.38-2.41c19.51-17.41,52.4-27.81,52.4-27.81l1.95,2.47c-32.07,8.46-52.78,28.12-52.78,28.12ZM257.42,75s-15.84.26-15.9,0c-2.31-12.49,7.5-13.6,7.5-13.6,8.92-.16,10.45,10.89,10.45,10.89l-2.05,2.71ZM344.99,108.09c-33.41-26.07-55.57-29.72-55.57-29.72,0,0,1.3-3.27,2.09-3.11,22.36,4.67,54.85,29.12,54.85,29.12,3.13,4.57-1.36,3.71-1.36,3.71ZM222.16,167.77s-8.96-11.63-9.24-13.82l16.97-.54,11.63,15.54-19.35-1.18ZM235.42,143.85l1.97-13.6,12.41,8.92.84,22.28-15.22-17.61ZM276.41,144.71l-13.6,13.38v-16.74c2.39-6.4,13.6-9.79,13.6-9.79v13.16ZM214.38,383.03l-1.52-60.84c21.66-25.51-2.29-48.17-2.29-48.17l1.4-52.72c19.95-9.04,35.68-27.19,35.68-27.19,5.33-6.14,7.46.64,7.46.64,9.12,15.4,35.58,26.55,35.58,26.55l-2.99,107.23c-.38,4.07-7.36,7-7.36,7-19.07-2.17-22.88,28.2-22.88,28.2l-20.84,19.31h-22.24ZM347.56,329.41c-8.78-12.05-17.29-1.99-17.29-1.99-6,10.01,3.61,17.17,3.61,17.17,9.67,5.8,9.1,12.89,9.1,12.89-1.52,10.17-28.4,23.26-28.4,23.26-86.03,39-89.76,63.67-89.76,63.67-3.19,4.51-1.26,7.28-1.26,7.28,6.98,2.01,10.05,10.67,10.05,10.67-1.22,7.36-8.5,10.75-8.5,10.75-8.56,2.25-6.44-3.63-6.44-3.63-.18-5.23,4.91.58,5.09.54,4.85-1.08,4.93-6.98,4.93-6.98.28-7.24-9.08-11.23-9.08-11.23l2.71-7.52c6.14-15.9,26.33-30.34,26.33-30.34,7.04-7.12,56.63-32.27,56.63-32.27,23.08-10.35,30.5-17.97,30.5-17.97,7.82-8.72.06-13.48.06-13.48-7.76-3.13-11.29-9.26-11.29-9.26-6.4-12.87,6.54-17.49,6.54-17.49,13.14-7.3,17.91,5.37,17.91,5.37.12,2.99-1.44.54-1.44.54ZM361.12,125.06s.22-3.77,2.17-2.85c0,0,21.42,19.31,30.76,53.24l-3.69,2.99s-9.1-35.78-29.24-53.38ZM399.62,225.59c-3.51,1.02-6.72.8-6.72.8,0,0-.22-16.16,0-16.24,3.45-1.26,6.14-1.06,8.24-.12,6.96,3.09,5.82,13.46-1.52,15.56Z"/>
  <path class="st0" d="M375.94,222.54h4.19s5.03-67.56-49.62-106.46c0,0-34.72-31.37-84.65-28.18,0,0-45.63-2.33-81.02,31.41,0,0-39.52,26.91-44.58,80.92,0,0-6.23,44.33,8.2,68.96l2.6-7.35s-20.39-40.31,3.53-96.11c0,0,20-46.53,65.95-63.05,0,0,40.11-21.2,90.37-3.17,0,0,40.15,13.42,60.8,45.17,0,0,22.36,26.33,24.25,77.85Z"/>
  <path class="st0" d="M241.53,248.35c-18.66-1.8-22.06,15.23-22.06,15.23-3.81,18.68,8.95,23.7,8.95,23.7,26.14,4.66,18.47-15.6,18.47-15.6-3.45-6.2-10.57-.42-10.57-.42l-1.06-5.08c2.79-4.16,8.97-1.06,8.97-1.06,12.75,6.12,4.54,19.68,4.54,19.68l-8.52,12.88-.98,3.49c-4.97,18.29,11.96,23.72,11.96,23.72,10.96,2.73,6.56-2.82,6.56-2.82l-4.89-6.14c-3.91-11.02,5.78-20.59,5.78-20.59,13.28-17.44,7.94-27.24,7.94-27.24,4.69-2.03,6.7-5.86,6.7-5.86,3.14-6.38-3-9.09-3-9.09-9.37-2.78-7.23,7.54-7.23,7.54l-1.2-.07s-7.79-11.05-20.37-12.26Z"/>
  <path class="st0" d="M238.45,246.24c.42.05,2.8-19.94,14.09-17.63,0,0,3.45.16,4.29,5.71,0,0-1.52,4.28-5.03,1.55,0,0-1.37-2.58-3.33.35,0,0-6.36,7.48.79,13.09,0,0,9.45,8.43,20.72.91,0,0,8.9-4.23,7.91-21.8,0,0-4.62-18.85-22.21-18.63,0,0-13.67-1.18-24.52,11.08,0,0-17.08,22.43,7.3,25.36Z"/>
  <path class="st0" d="M218.1,261.41s-.65-6.18,7.79-11.78c.38-.25.65-.66.71-1.11l.33-2.66c.06-.48-.1-.95-.43-1.29-1.82-1.85-7.77-7.64-8.04-4.61l-.81,3.89c-.02.1-.04.18-.08.27-.27.64-1.56,3.54-4.28,6.06-.17.16-.31.34-.39.56-.29.78-.79,2.82.41,5.65,0,0,2.93,5.06,4.09,5.02h.71Z"/>
</svg>