<?xml version="1.0" encoding="UTF-8"?>
<svg id="_레이어_1" data-name="레이어_1" xmlns="http://www.w3.org/2000/svg" version="1.1" viewBox="0 0 500 500">
  <!-- Generator: Adobe Illustrator 29.8.5, SVG Export Plug-In . SVG Version: 2.1.1 Build 2)  -->
  <defs>
    <style>
      .st0 {
        fill: #2e2624;
      }
    </style>
  </defs>
  <path class="st0" d="M132.73,83.27l48.56,69.28s45.22-14.54,61.14,14.12l-1.91-123.87s-37.89,24.26-107.79,40.47Z"/>
  <path class="st0" d="M253.96,46.06v98.12s30.94-53.71,112.72-58.9c0,0-54.38-14.52-112.72-39.23Z"/>
  <path class="st0" d="M347.74,107.12l-86.32,119.25s-28.17-104.25,86.32-119.25Z"/>
  <path class="st0" d="M264.85,235.93l92.34-128.81,30.78,2.32,54.39,64.93-78,35.84s-6.31-15.81-23.05-20.61c-15-4.3-31.39,3.53-36.8,18.17-2.03,5.49-2.62,11.89.34,18.6l-39.99,9.56Z"/>
  <path class="st0" d="M267.14,238.72l37.99-9.99s18.91,10.61,34.6-5.08h11.6s-8.84,58.49-84.19,15.08Z"/>
  <path class="st0" d="M322.26,203.98c-.35.06,12.24,3.55,15.89,13.22h10.76s-7.9-16.68-26.65-13.22Z"/>
  <path class="st0" d="M364.89,100.13l20.52,2.72s10.88,10.63,11.37,11.37c.49.74,30.66,4.7,32.88,32.14,0,0-5.19-51.68-64.78-46.24Z"/>
  <rect class="st0" x="243.14" y="11.41" width="8.19" height="29.05"/>
  <rect class="st0" x="243.14" y="460.23" width="8.19" height="29.05"/>
  <rect class="st0" x="374.86" y="57.1" width="8.19" height="29.05" transform="translate(109.98 -204.76) rotate(35.08)"/>
  <rect class="st0" x="112.8" y="417.39" width="8.19" height="29.05" transform="translate(269.43 11.26) rotate(35.08)"/>
  <rect class="st0" x="455.14" y="166.37" width="8.19" height="29.05" transform="translate(449.46 -312.59) rotate(67.37)"/>
  <rect class="st0" x="30.49" y="311.62" width="8.19" height="29.05" transform="translate(322.31 168.71) rotate(67.37)"/>
  <path class="st0" d="M96.86,198.33l119.83,51.81s-84.84,44.42-119.83-51.81Z"/>
  <path class="st0" d="M224.79,245.89l-133.11-59.09-4.41-30.55,38.95-70.31,51.89,68.38s-14.07,9.59-15.12,26.97c-.94,15.58,10.25,29.88,25.71,31.98,5.8.79,12.18-.02,18.08-4.36l18,36.97Z"/>
  <path class="st0" d="M227.02,243.04l-17.99-34.92s6.26-20.76-12.46-32.68l-2.51-11.32s59.02-4.05,32.97,78.92Z"/>
  <path class="st0" d="M181.17,196.77c.14.33.82-12.72,9.47-18.38l-2.33-10.5s-14.57,11.32-7.13,28.88Z"/>
  <rect class="st0" x="34.59" y="167.8" width="8.19" height="29.05" transform="translate(-146.66 162.59) rotate(-71.94)"/>
  <rect class="st0" x="460.8" y="306.74" width="8.19" height="29.05" transform="translate(15.36 663.69) rotate(-71.94)"/>
  <rect class="st0" x="112.8" y="56.22" width="8.19" height="29.05" transform="translate(-17.15 97.21) rotate(-42.35)"/>
  <rect class="st0" x="374.86" y="417.39" width="8.19" height="29.05" transform="translate(-192.07 368) rotate(-42.35)"/>
  <path class="st0" d="M48.18,201.62l11.36-9.03,18.05,9.03s25.07,61.84,72.87,67.86l-96.6,42.45-7.69-8.02,2.01-102.28Z"/>
  <path class="st0" d="M130.41,415.88l94.39-120s41.99,139.05-94.39,120Z"/>
  <path class="st0" d="M250.45,368.12s46.63,29.33,74.09-3.76l38.73,58.29s-75.59,16.55-106.74,37.58l-6.08-92.11Z"/>
  <path class="st0" d="M51.89,327.13s47.76,39.86,68.82,86.87l51.9-67.69s-55.3-8.73-39.87-50.43l-80.85,31.25Z"/>
  <path class="st0" d="M366.69,217.21c-.76,2.5-2.8,35.46-17.79,47.4,0,0,42.34,19.58,93.45,50.15v-122.17l-75.67,24.61Z"/>
  <path class="st0" d="M167.28,332.17s-14.55-15.31-4.84-26.68c5.13-6.01,14.01-7.59,21.19-4.27,4.56,2.11,9.1,6.08,10.43,13.54l24.48-26.29s-32.97-31.69-63.75-1.58c-3.81,3.73-6.55,8.58-7.2,13.88-1.02,8.31,1.37,20.81,19.69,31.4Z"/>
  <path class="st0" d="M317.59,348.77s-25.77,12.49-33.57-.26c-4.13-6.74-3.98-8.46-3.69-13.71.28-5.02,6.41-9.1,13.91-8.06l-17.41-31.42s-40.34,21.53-21.26,60.12c2.36,4.78,8.96,10.06,14.18,11.17,33.94,7.19,35.91-2.24,47.83-17.83Z"/>
  <path class="st0" d="M241.55,388.48v69.02s-21.49-14.74-60.9-19.05l60.9-49.97Z"/>
  <path class="st0" d="M280.37,287.82c-1.4.79,24.45,34.51,24.45,34.51,0,0,23.73,3.74,21.93,32.61l42.42,57.35s57.16-47.54,19.05-94.99c0,0-48.17-63.27-107.85-29.48Z"/>
  <path class="st0" d="M404.24,308.39s19.82,24.5,17.07,35.51l21.05-20.37-38.12-15.14Z"/>
  <path class="st0" d="M407.04,369.05c-.61-1.48,8.01-3.65,8.71-18.29,0,0,21.53,56.89-25.79,66.91,0,0,31.01-15,17.07-48.62Z"/>
  <polygon class="st0" points="80.49 161.72 84.03 186.44 62.79 180.31 80.49 161.72"/>
</svg>