<?xml version="1.0" encoding="UTF-8"?>
<svg id="_레이어_1" data-name="레이어_1" xmlns="http://www.w3.org/2000/svg" version="1.1" viewBox="0 0 500 500">
  <!-- Generator: Adobe Illustrator 29.8.5, SVG Export Plug-In . SVG Version: 2.1.1 Build 2)  -->
  <defs>
    <style>
      .st0 {
        fill: #231815;
      }
    </style>
  </defs>
  <path class="st0" d="M455.21,97.34v129.93c0,1.01,1.12,1.61,1.96,1.05l27.29-18.18c.35-.23.56-.63.56-1.05v-94.47c0-.43-.22-.83-.59-1.06l-27.29-17.28c-.84-.53-1.93.07-1.93,1.06Z"/>
  <path class="st0" d="M414.16,58.55v39.15c0,.4.19.78.52,1.02l25.69,18.6c.83.6,2,0,2-1.02v-36.5c0-.38-.17-.73-.46-.97l-25.69-21.26c-.82-.68-2.06-.1-2.06.97Z"/>
  <path class="st0" d="M414.16,124.15v74.93c0,1.05,1.21,1.64,2.04.99l27.25-21.33c.3-.24.48-.6.48-.99v-35.06c0-.42-.21-.81-.55-1.04l-27.25-18.54c-.84-.57-1.97.03-1.97,1.04Z"/>
  <path class="st0" d="M414.56,227.36l25.69-23.75c.81-.75,2.11-.17,2.11.92v42.56c0,.38-.17.75-.47.98l-25.69,20.46c-.82.66-2.04.07-2.04-.98v-39.28c0-.35.15-.69.4-.92Z"/>
  <path class="st0" d="M410.63,313.74s-28.19-22.78-14.33-25.6h27.95l5.87-8.46h8.46v76.34l-39.39-25.5c-1.17-.76-2.02-2-2.02-3.4,0-2.76,2.11-7.55,13.46-13.38Z"/>
  <path class="st0" d="M363.12,315.97s14.9,3.97,24.08,18.37c0,0-29.05,32.03-32.28,58.35,0,0-21.6-.25-25.82-24.08,0,0,16.88-38.48,34.01-52.64Z"/>
  <path class="st0" d="M373.66,368.48l23.42-29.7,66.41,40.09s11.35,5.07-26.56,5.31h-44.46s-19.77-3.14-18.81-15.7Z"/>
  <path class="st0" d="M368.51,379.16v35.09l43.44,34.96s2.96,1.8,2.44-3.08c0,0-3.86-35.99-4.24-36.5-.39-.51-37.78-34.83-41.64-30.46Z"/>
  <path class="st0" d="M326.14,399.96s1.76-11.16,14.43,2.13c0,0,30.98,31.48,37.88,59.08,0,0,6.77,14.93-11.79.75,0,0-41.49-39.49-40.52-46.29.13-.88,0-15.68,0-15.68Z"/>
  <path class="st0" d="M310.68,427.31h7.16l18.04,24.79s-4.02,13.99-33.52,11.82c-1.78-.13-3.24-1.66-3.13-3.44.17-2.63,1.04-7.2,4-14.76l7.44-18.42Z"/>
  <path class="st0" d="M378.67,82.8h-31.25s-10.36-.37,5.73-14.79l25.52-24.04h17.29s4.34-.67,4.62,7.4v222.54s.77,3.95-6.56,3.88h-24.61c-.83,0-1.61-.38-2.13-1.02l-26.95-33.55c-.64-.8-.07-1.99.95-1.99h20.48c2.32,0,4.41-1.37,5.31-3.52,1.95-4.63,3.19-12.96-8.28-19.54v-24.49l30.16-21.92c.41-.3.65-.77.65-1.27v-14.64c0-.55-.24-1.03-.71-1.31-5.06-3.04-35.05-21.77-22.79-30.51,0,0,33.81-34.44,12.58-41.22Z"/>
  <path class="st0" d="M278.76,109.17s-14.86-15.64-21.24,1.95c0,0-1.82,12.51,12.12,20.07,0,0,1.17,3.65-4.04,5.47,0,0-13.28,3.92-3.29,17.54l15.28,7.79s.12-.42,12.11-11.78l5.12-5.96c4.02-4.69,4.41-11.4,1.1-16.61s-8.77-12.03-17.16-18.48Z"/>
  <circle class="st0" cx="249.79" cy="200.34" r="15.13"/>
  <path class="st0" d="M44.36,97.34v129.93c0,1.01-1.12,1.61-1.96,1.05l-27.29-18.18c-.35-.23-.56-.63-.56-1.05v-94.47c0-.43.22-.83.59-1.06l27.29-17.28c.84-.53,1.93.07,1.93,1.06Z"/>
  <path class="st0" d="M85.42,58.55v39.15c0,.4-.19.78-.52,1.02l-25.69,18.6c-.83.6-2,0-2-1.02v-36.5c0-.38.17-.73.46-.97l25.69-21.26c.82-.68,2.06-.1,2.06.97Z"/>
  <path class="st0" d="M85.42,124.15v74.93c0,1.05-1.21,1.64-2.04.99l-27.25-21.33c-.3-.24-.48-.6-.48-.99v-35.06c0-.42.21-.81.55-1.04l27.25-18.54c.84-.57,1.97.03,1.97,1.04Z"/>
  <path class="st0" d="M85.01,227.36l-25.69-23.75c-.81-.75-2.11-.17-2.11.92v42.56c0,.38.17.75.47.98l25.69,20.46c.82.66,2.04.07,2.04-.98v-39.28c0-.35-.15-.69-.4-.92Z"/>
  <path class="st0" d="M88.95,313.74s28.19-22.78,14.33-25.6h-27.95s-5.87-8.46-5.87-8.46h-8.46s0,76.34,0,76.34l39.39-25.5c1.17-.76,2.02-2,2.02-3.4,0-2.76-2.11-7.55-13.46-13.38Z"/>
  <path class="st0" d="M136.45,315.97s-14.9,3.97-24.08,18.37c0,0,29.05,32.03,32.28,58.35,0,0,21.6-.25,25.82-24.08,0,0-16.88-38.48-34.01-52.64Z"/>
  <path class="st0" d="M125.91,368.48l-23.42-29.7-66.41,40.09s-11.35,5.07,26.56,5.31h44.46s19.77-3.14,18.81-15.7Z"/>
  <path class="st0" d="M131.06,379.16v35.09s-43.44,34.96-43.44,34.96c0,0-2.96,1.8-2.44-3.08,0,0,3.86-35.99,4.24-36.5.39-.51,37.78-34.83,41.64-30.46Z"/>
  <path class="st0" d="M173.43,399.96s-1.76-11.16-14.43,2.13c0,0-30.98,31.48-37.88,59.08,0,0-6.77,14.93,11.79.75,0,0,41.49-39.49,40.52-46.29-.13-.88,0-15.68,0-15.68Z"/>
  <path class="st0" d="M188.9,427.31h-7.16s-18.04,24.79-18.04,24.79c0,0,4.02,13.99,33.52,11.82,1.78-.13,3.24-1.66,3.13-3.44-.17-2.63-1.04-7.2-4-14.76l-7.44-18.42Z"/>
  <path class="st0" d="M362.4,147.98c-9.19-4.21-9.07-10.4-9.07-10.4v-15.96c0-.8.29-1.58.81-2.19l11.74-13.75c11.23-13.38,6.21-14.13,6.21-14.13h-27.51c-24.05,1.3-10.48-29.64-10.48-29.64,9.48-20.06,8.38-23.75,8.38-23.75-1.9-8.28-26.34,12.47-26.34,12.47-10.28,10.99-21.51-5.42-23.89-9.22-.31-.49-.82-.76-1.39-.76h-12.53c-.67,0-1.28.46-1.54,1.07-3.03,7.33-5.58,10.53-7.23,11.92-1.1.93-2.62,1.2-3.84.44-6-3.74-12.63-22.59-12.63-22.59h-6.6s-6.63,18.84-12.63,22.59c-1.22.76-2.74.49-3.84-.44-1.65-1.39-4.21-4.59-7.23-11.92-.25-.62-.87-1.07-1.54-1.07h-12.53c-.58,0-1.09.27-1.39.76-2.38,3.8-13.61,20.22-23.89,9.22,0,0-24.45-20.76-26.34-12.47,0,0-1.1,3.69,8.38,23.75,0,0,13.57,30.93-10.48,29.64h-27.51s-5.02.75,6.21,14.13l11.74,13.75c.52.61.81,1.39.81,2.19v15.96s.12,6.2-9.07,10.4c0,0-33.88,14.39-7.31,21.92,0,0,52.25,22.15,9.41,62.87,0,0-6.56,3.92,20.13.94,8.58-.96,17.3.14,25.33,3.3,0,0,9.74,4.58,21.33-24.04,0,0,2.29-9.11-13.86-23.86,0,0-35.2-38.87,9.42-66.22,0,0,29.66-28.85,2.38-40.49,0,0-8.04-15.07,17.74-4.26.59.25,1.05.84,1.09,1.48l.66,9.91c.3,4.55,3.55,8.31,7.98,9.39,4.55,1.1,10.91,2.34,18.3,2.94,7.39-.6,13.75-1.83,18.3-2.94,4.43-1.07,7.68-4.84,7.98-9.39l.66-9.91c.04-.64.5-1.23,1.09-1.48,25.78-10.81,17.74,4.26,17.74,4.26-27.28,11.64,2.38,40.49,2.38,40.49,44.62,27.36,9.42,66.22,9.42,66.22-16.15,14.75-13.86,23.86-13.86,23.86,11.59,28.62,21.33,24.04,21.33,24.04,8.04-3.16,16.75-4.26,25.33-3.3,26.7,2.98,20.13-.94,20.13-.94-42.84-40.71,9.41-62.87,9.41-62.87,26.57-7.53-7.31-21.92-7.31-21.92Z"/>
  <path class="st0" d="M120.9,82.8h31.25s10.36-.37-5.73-14.79l-25.52-24.04h-17.29s-4.34-.67-4.62,7.4v222.54s-.77,3.95,6.56,3.88h24.61c.83,0,1.61-.38,2.13-1.02l26.95-33.55c.64-.8.07-1.99-.95-1.99h-20.48c-2.32,0-4.41-1.37-5.31-3.52-1.95-4.63-3.19-12.96,8.28-19.54v-24.49s-30.16-21.92-30.16-21.92c-.41-.3-.65-.77-.65-1.27v-14.64c0-.55.24-1.03.71-1.31,5.06-3.04,35.05-21.77,22.79-30.51,0,0-33.81-34.44-12.58-41.22Z"/>
  <path class="st0" d="M220.82,109.17s14.86-15.64,21.24,1.95c0,0,1.82,12.51-12.12,20.07,0,0-1.17,3.65,4.04,5.47,0,0,13.28,3.92,3.29,17.54l-15.28,7.79s-.12-.42-12.11-11.78l-5.12-5.96c-4.02-4.69-4.41-11.4-1.1-16.61,3.36-5.27,8.77-12.03,17.16-18.48Z"/>
  <g>
    <path class="st0" d="M310.32,144.51c-2.61-5.91-4.26-3.48-4.26-3.48l-24.17,26.43c-.87.96-1.3,2.17-1.22,3.48l1.13,14.08c-.7,1.3-2.61,2.78-2.61,2.78-5.13-12.78-25.82-34.6-25.82-34.6h-3.56v26.69c10.61,0,19.3,13.82,19.3,24.52s-8.69,16.34-19.3,16.34v20.34c30.86-7.56,33.91-32.6,34.08-39.99,0-1.3.7-2.35,1.83-3.04,10.78-6.87,17.91-24.17,17.91-24.17,7.22-15.48,6.69-29.39,6.69-29.39Z"/>
    <path class="st0" d="M220.38,187.81s-1.91-1.48-2.61-2.78l1.13-14.08c.09-1.3-.35-2.52-1.22-3.48l-24.17-26.43s-1.65-2.43-4.26,3.48c0,0-.52,13.91,6.69,29.39,0,0,7.13,17.3,17.91,24.17,1.13.7,1.83,1.74,1.83,3.04.17,7.39,3.22,32.43,34.08,39.99v-20.34c-10.61,0-19.3-5.74-19.3-16.34s8.69-24.52,19.3-24.52v-26.69h-3.56s-20.69,21.82-25.82,34.6Z"/>
  </g>
  <polygon class="st0" points="249.79 243.58 227.12 243.58 227.12 267.36 249.79 267.36 272.45 267.36 272.45 243.58 249.79 243.58"/>
  <g>
    <path class="st0" d="M276.98,272.13h-27.19v85.96h17.77v-65.91l4.89-2.72c18.26-11.04,4.53-17.33,4.53-17.33Z"/>
    <path class="st0" d="M227.12,289.45l4.89,2.72v65.91h17.77v-85.96h-27.19s-13.73,6.29,4.53,17.33Z"/>
  </g>
  <g>
    <path class="st0" d="M271.82,366.3h-22.04v38.98l21.08-.53c11.15-4.04.96-38.45.96-38.45Z"/>
    <path class="st0" d="M228.71,404.75l21.08.53v-38.98s-22.04,0-22.04,0c0,0-10.2,34.41.96,38.45Z"/>
  </g>
  <path class="st0" d="M287.51,401.89c-1,0-1.96.39-2.69,1.08l-8.06,7.7c-1.67,1.6-3.89,2.49-6.2,2.49h-41.55c-2.31,0-4.53-.89-6.2-2.49l-8.06-7.7c-.72-.69-1.69-1.08-2.69-1.08h-9.7v9.21c0,.98.34,1.89,1,2.61,6.49,7.05,42.41,45.83,46.42,45.54,4.01.29,39.92-38.49,46.42-45.54.66-.72,1-1.63,1-2.61v-9.21h-9.7Z"/>
</svg>