<?xml version="1.0" encoding="UTF-8"?>
<svg id="_레이어_1" data-name="레이어_1" xmlns="http://www.w3.org/2000/svg" version="1.1" viewBox="0 0 500 500">
  <!-- Generator: Adobe Illustrator 29.8.5, SVG Export Plug-In . SVG Version: 2.1.1 Build 2)  -->
  <defs>
    <style>
      .st0 {
        fill: #231815;
      }
    </style>
  </defs>
  <path class="st0" d="M234.13,48.98c6.06,0,10.97-4.91,10.97-10.97,0-2.26-.85-4.25-2.03-6,1.78,1.26,3.84,2.16,6.19,2.16,6.06,0,10.97-4.91,10.97-10.97s-4.91-10.97-10.97-10.97-10.97,4.91-10.97,10.97c0,2.26.85,4.25,2.03,6-1.78-1.26-3.84-2.16-6.19-2.16-6.06,0-10.97,4.91-10.97,10.97s4.91,10.97,10.97,10.97Z"/>
  <path class="st0" d="M254.29,38.01c0,6.06,4.91,10.97,10.97,10.97s10.97-4.91,10.97-10.97-4.91-10.97-10.97-10.97-10.97,4.91-10.97,10.97Z"/>
  <circle class="st0" cx="211.93" cy="51.27" r="9.36"/>
  <path class="st0" d="M142.65,89.3c29.75,6.64,22.46-17.42,22.2-17.73-3.35-4.04-6.03-1.38-7.28.43-.63.92-1.63,1.54-2.74,1.67-4.68.57-5.67-2.13-5.74-4.3-.04-1.37.3-2.72.85-3.98,1.71-3.92,3.89-5.19,5.71-5.45,1.74-.25,3.47.49,4.69,1.75,14.84,15.26,9.55,35.05,9.55,35.05l6.06,3.43h15.1c6.29-13.96-2.86-46.34-2.86-46.34-14.3-25.63-39.47-19.68-39.47-19.68-13.04-.34-22.08,22.08-22.08,22.08-7.09,24.26,16.02,33.07,16.02,33.07Z"/>
  <path class="st0" d="M240.58,251.05V115.52h9.21v-14.73h-9.41v-46.85c-5.52-3.81-10.57,0-10.57,0v47.23h-11.43v-35.04c-6.71-6.71-11.52,0-11.52,0v36.47h-32.66l-9.81-5.33s-12.57,5.14-12.85,5.33v13.44l14.86,4.53,7.95-5.31h31.79v135.79h12.08V115.47h11.88v135.58h10.47Z"/>
  <circle class="st0" cx="287.64" cy="51.27" r="9.36"/>
  <path class="st0" d="M323.63,100.17l6.06-3.43s-5.3-19.79,9.55-35.05c1.23-1.26,2.95-1.99,4.69-1.75,1.82.26,4,1.54,5.71,5.45.55,1.26.89,2.61.85,3.98-.07,2.17-1.06,4.87-5.74,4.3-1.11-.14-2.11-.75-2.74-1.67-1.24-1.81-3.93-4.47-7.28-.43-.26.32-7.55,24.37,22.2,17.73,0,0,23.11-8.81,16.02-33.07,0,0-9.04-22.42-22.08-22.08,0,0-25.17-5.95-39.47,19.68,0,0-9.15,32.38-2.86,46.34h15.1Z"/>
  <path class="st0" d="M293.43,251.05V115.26h31.79l7.95,5.31,14.86-4.53v-13.44c-.29-.19-12.85-5.33-12.85-5.33l-9.81,5.33h-32.66v-36.47s-4.81-6.71-11.52,0v35.04h-11.43v-47.23s-5.05-3.81-10.57,0v46.85h-9.41v14.73h9.21v135.53h10.47V115.47h11.88v135.58h12.08Z"/>
  <path class="st0" d="M442.33,286.47c-.62-2.93-1.06-5.88-1.51-8.84-3.67-24.3-44.55-74.06-62.48-94.9-4.59-5.33-9.53-10.31-14.74-15.04-26.19-23.71-32.56-44.58-32.56-44.58-.34-5.52-11.04-5.69-11.04-5.69-22.85-2.55-2.21,23.87-2.21,23.87-6.81,4.02-.84,25.1,4.84,40.88,3.61,10.05,9.36,19.16,16.65,26.97,28.77,30.89,38.18,76.11,38.18,76.11,8.72,33.68-19.59,37.44-19.59,37.44,2.56-2.12,2.9-9.79,2.81-15.13-.07-3.8-.93-7.55-2.55-10.98-9.01-19.08-25.46-27.62-29.16-29.34-.56-.27-1.12-.56-1.66-.87-24.51-13.63-48.44,14.65-48.44,14.65-1.19-6.91,17.99-21.18,18.39-21.32,7.84-2.61-2.62-6.92-2.62-6.92h-89.7s-10.46,4.31-2.62,6.92c.4.14,19.58,14.41,18.39,21.32,0,0-23.93-28.28-48.44-14.65-.54.3-1.1.6-1.66.87-3.7,1.72-20.15,10.27-29.16,29.34-1.62,3.43-2.48,7.18-2.55,10.98-.09,5.34.25,13.01,2.81,15.13,0,0-28.32-3.76-19.59-37.44,0,0,9.42-45.22,38.18-76.11,7.29-7.81,13.04-16.92,16.65-26.97,5.67-15.78,11.64-36.86,4.84-40.88,0,0,20.63-26.42-2.21-23.87,0,0-10.69.17-11.04,5.69,0,0-6.37,20.87-32.56,44.58-5.21,4.72-10.15,9.7-14.74,15.04-17.93,20.85-58.81,70.6-62.48,94.9-.45,2.96-.9,5.91-1.51,8.84-4.11,19.39-11.56,89.21,89.25,105.03,0,0,71.56,16.1,79.43,29.34,0,0,8.41,11.63,7.7,16.46,0,0-7.79-17.04-18.44-7.73-2.49,2.19-4.18,5.14-5.07,8.34-1.83,6.57-2.95,18.86,10.23,27.33,3.37,2.17,6.63,4.49,9.66,7.11,7.1,6.18,18.69,16.11,19.79,16.11s12.69-9.93,19.79-16.11c3.03-2.62,6.29-4.94,9.66-7.11,13.18-8.46,12.06-20.76,10.23-27.33-.89-3.19-2.58-6.15-5.07-8.34-10.65-9.32-18.44,7.73-18.44,7.73-.72-4.83,7.7-16.46,7.7-16.46,7.87-13.24,79.43-29.34,79.43-29.34,100.81-15.83,93.36-85.65,89.25-105.03ZM179.98,141.4c-.71,2.04-12.47,34.99-32.05,57,0,0-45.43,58.14-47.31,82.93,0,0-16.67,78.15,59.6,71.69l-1.67,4.79s-57.72,10-65.64-39.8c0,0-16.88-38.97,35.64-105.24,0,0,46.04-57.65,51.43-71.37ZM166.44,368.08s-97.9,29.04-100.41-65.23c0,0,0-57.93,88.83-135.02-2.45,2.79-81.81,93.28-80.73,132.73.05,1.83,0,3.65-.09,5.48-.62,14.38,2.33,72.08,92.39,57.8v4.25ZM187.09,353.46c-2.56,0-4.63-2.08-4.63-4.63s2.08-4.63,4.63-4.63,4.63,2.08,4.63,4.63-2.07,4.63-4.63,4.63ZM202.57,369.73c-1.59-6.88,5.42-8.6,5.42-8.6,0,0,.93,12.44.93,13.37,0,0-4.76,2.11-6.35-4.77ZM200.64,337.2c-.47-.37,9.17-6.19,9.17-6.19,0,0,1.66,14.59-9.17,6.19ZM197.73,313.47c-10.41,1.71-10.41-10.63-10.41-10.63,8.49,6.92,11.98,4.63,13.38.92,1.72-4.54-.33-9.65-4.53-12.1-11.1-6.47-17.48,5.52-17.48,5.52-15.07,21.49,8.47,31.14,8.47,31.14l-16.93,5.42c-10.24-24.55-2.46-37.25.51-40.87.72-.89,1.38-1.81,2.04-2.75,8.24-11.71,24.88-5.64,24.88-5.64,10.49,3.04,12.91,9.26,12.69,14.72-.27,7.09-5.61,13.1-12.61,14.25ZM220.54,355.92c0,1.14-1.43,1.66-2.16.78l-3.39-4.08c-1.33-1.6-1.33-3.93,0-5.54l4.61-5.55c.32-.38.94-.15.94.34v14.05ZM238.66,353.56c-10.39-12.49-12.49-34.15-12.49-34.15,11.71,9.39,12.49,34.15,12.49,34.15ZM225.6,373.18s-1.06-8.08,3.44-8.87l2.43,1.67c2.33,1.6,4.06,3.92,4.94,6.6,2.8,8.44,8.69,27.56,7.98,36.99,0,0-17.07-25.14-18.79-36.39ZM273.4,319.41s-2.1,21.66-12.49,34.15c0,0,.78-24.76,12.49-34.15ZM273.97,373.18c-1.72,11.25-18.79,36.39-18.79,36.39-.71-9.42,5.18-28.54,7.98-36.99.88-2.69,2.62-5,4.94-6.6l2.43-1.67c4.5.79,3.44,8.87,3.44,8.87ZM398.95,281.33c-1.88-24.79-47.31-82.93-47.31-82.93-19.58-22.01-31.34-54.96-32.05-57,5.39,13.72,51.43,71.37,51.43,71.37,52.52,66.27,35.64,105.24,35.64,105.24-7.93,49.8-65.64,39.8-65.64,39.8l-1.67-4.79c76.27,6.46,59.6-71.69,59.6-71.69ZM284.59,352.62l-3.39,4.08c-.73.87-2.16.36-2.16-.78v-14.05c0-.49.62-.72.94-.34l4.61,5.55c1.33,1.6,1.33,3.93,0,5.54ZM297,369.73c-1.59,6.88-6.35,4.77-6.35,4.77,0-.93.93-13.37.93-13.37,0,0,7.01,1.72,5.42,8.6ZM289.76,331.01s9.64,5.83,9.17,6.19c-10.83,8.4-9.17-6.19-9.17-6.19ZM312.49,353.46c-2.56,0-4.63-2.08-4.63-4.63s2.07-4.63,4.63-4.63,4.63,2.08,4.63,4.63-2.08,4.63-4.63,4.63ZM312.42,328.33s23.53-9.64,8.47-31.14c0,0-6.38-11.99-17.48-5.52-4.2,2.45-6.25,7.56-4.53,12.1,1.4,3.71,4.89,6,13.38-.92,0,0,0,12.34-10.41,10.63-7-1.15-12.34-7.16-12.61-14.25-.21-5.46,2.21-11.68,12.69-14.72,0,0,16.63-6.07,24.88,5.64.65.94,1.32,1.86,2.04,2.75,2.97,3.62,10.75,16.31.51,40.87l-16.93-5.42ZM333.14,368.08v-4.25c90.06,14.28,93.02-43.42,92.39-57.8-.08-1.83-.14-3.64-.09-5.48,1.09-39.44-78.28-129.94-80.73-132.73,88.83,77.09,88.83,135.02,88.83,135.02-2.51,94.27-100.41,65.23-100.41,65.23Z"/>
</svg>