<?xml version="1.0" encoding="UTF-8"?>
<svg id="_레이어_1" data-name="레이어_1" xmlns="http://www.w3.org/2000/svg" version="1.1" viewBox="0 0 500 500">
  <!-- Generator: Adobe Illustrator 29.8.5, SVG Export Plug-In . SVG Version: 2.1.1 Build 2)  -->
  <defs>
    <style>
      .st0 {
        fill: #231815;
      }
    </style>
  </defs>
  <g>
    <path class="st0" d="M366.15,267.6c24.25-16.06,14.3-23.82,14.3-23.82-28.99-.72-38.23-42.94-38.23-42.94,11.05-4.89,17.94-31.89,17.94-31.89,7.61-18.3-4.89-13.77-4.89-13.77-12.84,6.27-53.71,6.1-66.15,5.89-2.16-.04-4.23-.74-6.04-1.93-15.11-10-33.29,6.98-33.29,6.98,0,0-18.18-16.98-33.29-6.98-1.8,1.19-3.88,1.9-6.04,1.93-12.44.21-53.31.38-66.15-5.89,0,0-12.5-4.53-4.89,13.77,0,0,6.88,26.99,17.94,31.89,0,0-9.24,42.21-38.23,42.94,0,0-9.95,7.76,14.3,23.82,0,0,8.6,2.91,5.45,30.41,0,0-6.2,10.48-12.28,10.82,0,0,.42,15.88,37.91,12.33,0,0,13.73.89,22.58,14.87,0,0,13.11,10.16.11,18.9,0,0,17.54,5.04,19.33-10.92,0,0,2.89-17.54-21.73-31.54-7.05-4.01-13.16-9.48-17.67-16.22l-14.9-22.28s-10.19-9.48,4.77-39.1c2.13-4.22,4.01-8.54,5.45-13.04,1.49-4.65,5.64-11.78,17.21-16.46,0,0,3.51-5.85-9.21-10.96,0,0-15.99-8.15-14.32-21.92l12.04-.49c1.38-.06,2.72.25,3.93.91,4.75,2.59,19.37,8.57,38.68-2.32,0,0,20.13-11.69,39,7.01,18.87-18.71,39-7.01,39-7.01,19.31,10.89,33.93,4.91,38.68,2.32,1.21-.66,2.56-.97,3.93-.91l12.04.49c1.67,13.77-14.32,21.92-14.32,21.92-12.71,5.11-9.21,10.96-9.21,10.96,11.57,4.68,15.72,11.81,17.21,16.46,1.44,4.5,3.32,8.82,5.45,13.04,14.96,29.62,4.77,39.1,4.77,39.1l-14.9,22.28c-4.51,6.74-10.62,12.21-17.67,16.22-24.62,14-21.73,31.54-21.73,31.54,1.8,15.96,19.33,10.92,19.33,10.92-13-8.74.11-18.9.11-18.9,8.85-13.98,22.58-14.87,22.58-14.87,37.5,3.55,37.91-12.33,37.91-12.33-6.09-.34-12.28-10.82-12.28-10.82-3.16-27.5,5.45-30.41,5.45-30.41Z"/>
    <path class="st0" d="M278.62,235.31c16.91-3.41,13.35-13.5,13.35-13.5l-20.32,8.05c-.36,4.5,6.97,5.44,6.97,5.44Z"/>
    <path class="st0" d="M295.66,237.68c6.69,4.95,9.3-3.52,9.3-3.52,1.56-5.13-1.29-6.18-1.29-6.18-6.11,0-9.22,6.6-9.45,6.99-.71,1.16,1.44,2.71,1.44,2.71Z"/>
    <path class="st0" d="M270.3,302.46c0-3.58-3.44-3.86-3.44-3.86h-34.15s-3.44.28-3.44,3.86c0,0,.07,17.22,5.92,14.88l3.79-8.2s4.3-7.93,10.8-5.57c6.5-2.36,10.8,5.57,10.8,5.57l3.79,8.2c5.86,2.34,5.92-14.88,5.92-14.88Z"/>
    <path class="st0" d="M296.28,290.58c-.93-6.87-8.09-2.36-8.09-2.36l-9.45,6.15.72,22.33c-.36,4.22,2.43,4.08,2.43,4.08,19.18-3.29,14.38-30.2,14.38-30.2Z"/>
    <path class="st0" d="M260.87,326.11h-22.17s-4.59-.7-4.89,4.19c0,0-4.28,23.96,15.97,22.16,20.26,1.8,15.97-22.16,15.97-22.16-.3-4.89-4.89-4.19-4.89-4.19Z"/>
    <path class="st0" d="M280.3,341.54c-.32-15.3-3.2-7.75-3.2-7.75-1.81,8.21-13.23,18.76-13.23,18.76l.56,9.08c-.14,6.96-14.65,5.15-14.65,5.15,0,0-14.51,1.81-14.65-5.15l.56-9.08s-11.42-10.55-13.23-18.76c0,0-2.87-7.55-3.2,7.75,0,0-.92,8.29,2.83,14.66v7.59l-1.27,10.45,20.78,11.41s5.29,8.95,8.18,8.28c2.88.67,8.18-8.28,8.18-8.28l20.78-11.41-1.27-10.45v-7.59c3.76-6.37,2.83-14.66,2.83-14.66Z"/>
    <path class="st0" d="M208.56,268.68l-6.54,3.48s-2.02,6.81,10.71,7.75l15.32,13.91h6.84s7.85-5.54,14.89-2.24c7.04-3.3,14.89,2.24,14.89,2.24h6.84l15.32-13.91c12.73-.94,10.71-7.75,10.71-7.75l-6.54-3.48-9.44,5.05-1.74-2.81,9.25-11.66c5.78-13.79,12.38.71,12.38.71l4.48,25.7c-.35,5.19,1.41,4.36,1.41,4.36,10.73,1.89,8.77-24.05,8.77-24.05-1.84-14.5,13.41-5.58,13.41-5.58,23.17,6.16.68-19.63.68-19.63-5.08-6.53-4.16-10.34-4.16-10.34-3.88-25.27-38.21-46.57-38.21-46.57-12.17-10.52-38.06-3.15-38.06-3.15,0,0-25.89-7.38-38.06,3.15,0,0-34.34,21.3-38.21,46.57,0,0,.92,3.81-4.16,10.34,0,0-22.49,25.79.68,19.63,0,0,15.25-8.92,13.41,5.58,0,0-1.96,25.93,8.77,24.05,0,0,1.77.83,1.41-4.36l4.48-25.7s6.6-14.5,12.38-.71l9.25,11.66-1.74,2.81-9.44-5.05ZM243.48,188.47l6.31,1.86,6.31-1.86c15.11-4.56,23.15,8.4,23.15,8.4-11.39-5.88-24.15.26-24.15.26.21,4.67-5.31,7.88-5.31,7.88,0,0-5.52-3.21-5.31-7.88,0,0-12.76-6.14-24.15-.26,0,0,8.04-12.95,23.15-8.4ZM214.92,242.32s-7.82-3.91-19.29,6c0,0-14.65,6.92-11.41-5.19,0,0-3.89-21.25,16.29-36.96l-.92,9.1s17.75-3.96,30.87,10.97c0,0,10.29,2.37,4.64-13.12,0,0-2.89-10.62,4.15-2.55,0,0,9.58,6.72-.07,21.19,0,0-12.32,4.83-6.35,16.1l10.32,12.64,6.64.54,6.64-.54,10.32-12.64c5.98-11.28-6.35-16.1-6.35-16.1-9.65-14.47-.07-21.19-.07-21.19,7.04-8.07,4.15,2.55,4.15,2.55-5.65,15.49,4.64,13.12,4.64,13.12,13.12-14.93,30.87-10.97,30.87-10.97l-.92-9.1c20.18,15.71,16.29,36.96,16.29,36.96,3.24,12.11-11.41,5.19-11.41,5.19-11.47-9.91-19.29-6-19.29-6l-10.28,10.16-3.65,10.08c-10.74-2.12-11.29,3.01-11.29,3.01.1,13.78-9.65,14.34-9.65,14.34,0,0-9.75-.56-9.65-14.34,0,0-.54-5.13-11.29-3.01l-3.65-10.08-10.28-10.16Z"/>
    <path class="st0" d="M227.92,229.87l-20.32-8.05s-3.56,10.09,13.35,13.5c0,0,7.33-.94,6.97-5.44Z"/>
    <path class="st0" d="M195.91,227.98s-2.86,1.05-1.29,6.18c0,0,2.61,8.47,9.3,3.52,0,0,2.15-1.55,1.44-2.71-.23-.38-3.34-6.99-9.45-6.99Z"/>
    <path class="st0" d="M220.83,294.37l-9.45-6.15s-7.16-4.51-8.09,2.36c0,0-4.79,26.91,14.38,30.2,0,0,2.79.14,2.43-4.08l.72-22.33Z"/>
  </g>
  <path class="st0" d="M249.79,100.08c82.85,0,150.26,67.41,150.26,150.26s-67.41,150.26-150.26,150.26-150.26-67.41-150.26-150.26S166.93,100.08,249.79,100.08M249.79,81.58c-93.21,0-168.76,75.56-168.76,168.76s75.56,168.76,168.76,168.76,168.76-75.56,168.76-168.76-75.56-168.76-168.76-168.76h0Z"/>
  <g>
    <path class="st0" d="M276.51,431.85l-13.67-.35c-10.36-1.05-7.95,4.53-7.95,4.53l21.01,23.37c.35,6.17-25.96,7.14-26.12,7.15-.16,0-26.46-.98-26.12-7.15l21.01-23.37s2.41-5.58-7.95-4.53l-13.67.35s-27.03,21.89-29.39,27.64c0,0-10.06,14.85,40.18,24.8,0,0,7.59,2.63,15.93,2.02,8.35.61,15.93-2.02,15.93-2.02,50.24-9.96,40.18-24.8,40.18-24.8-2.35-5.75-29.39-27.64-29.39-27.64Z"/>
    <path class="st0" d="M370.84,100.3c.7-.52,7.37-7.85,7.37-7.85.68-.7,1.41-1.26,2.14-1.7,2.77-1.65,6.32-1.09,8.5,1.29l9.77,10.68c1.47,1.6,3.19,2.92,4.95,4.2,5.33,3.86,2.85,8.54,2.85,8.54l-9.24,12.9c18.31,15.7,31.74,64.35,31.74,64.35l27.75-30.73c-39.35-103.58-135.75-120.2-135.75-120.2l-21.16,21.82c37.73,3.43,70.39,37.2,71.09,36.68Z"/>
    <path class="st0" d="M397.18,371.11l9.24,12.91s2.48,4.69-2.85,8.54c-1.76,1.27-3.48,2.6-4.95,4.2l-9.77,10.68c-2.18,2.38-5.73,2.95-8.5,1.29-.73-.44-1.46-.99-2.14-1.7,0,0-6.67-7.32-7.37-7.85-.7-.52-33.36,33.25-71.09,36.68l21.16,21.82s96.4-16.62,135.75-120.2l-27.75-30.73s-13.43,48.66-31.74,64.35Z"/>
    <path class="st0" d="M476.65,212.67l-12.33-23.06c-1.08-2.02-3.84-2.36-5.38-.66l-31.82,35.27v21.78l21.89-18.41s5.1-2.45,7.66.2v40.29s.93,8.18-5.82,4.91l-22.29-21.27-1.43,22.7,31.94,38.15c1.53,1.83,4.43,1.49,5.5-.64l12.21-24.32c.71-1.41,1.07-2.96,1.07-4.54v-65.64c0-1.66-.41-3.3-1.19-4.77Z"/>
    <path class="st0" d="M223.06,68.84l13.67.35c10.36,1.05,7.95-4.53,7.95-4.53l-21.01-23.37c-.35-6.17,25.96-7.14,26.12-7.15.16,0,26.46.98,26.12,7.15l-21.01,23.37s-2.41,5.58,7.95,4.53l13.67-.35s27.03-21.89,29.39-27.64c0,0,10.06-14.85-40.18-24.8,0,0-7.59-2.63-15.93-2.02-8.35-.61-15.93,2.02-15.93,2.02-50.24,9.95-40.18,24.8-40.18,24.8,2.35,5.75,29.39,27.64,29.39,27.64Z"/>
    <path class="st0" d="M102.4,128.38l-9.24-12.9s-2.48-4.69,2.85-8.54c1.76-1.27,3.48-2.6,4.95-4.2l9.77-10.68c2.18-2.38,5.73-2.94,8.5-1.29.73.44,1.46.99,2.14,1.7,0,0,6.67,7.32,7.37,7.85.7.52,33.36-33.25,71.09-36.68l-21.16-21.82s-96.4,16.62-135.75,120.2l27.75,30.73s13.43-48.66,31.74-64.35Z"/>
    <path class="st0" d="M128.73,399.19c-.7.52-7.37,7.85-7.37,7.85-.68.7-1.41,1.26-2.14,1.7-2.77,1.65-6.32,1.09-8.5-1.29l-9.77-10.68c-1.47-1.6-3.19-2.92-4.95-4.2-5.33-3.86-2.85-8.54-2.85-8.54l9.24-12.91c-18.31-15.7-31.74-64.35-31.74-64.35l-27.75,30.73c39.35,103.58,135.75,120.2,135.75,120.2l21.16-21.82c-37.73-3.43-70.39-37.2-71.09-36.68Z"/>
    <path class="st0" d="M71.03,251.72l-22.29,21.27c-6.75,3.27-5.82-4.91-5.82-4.91v-40.29c2.56-2.66,7.66-.2,7.66-.2l21.89,18.41v-21.78l-31.82-35.27c-1.54-1.7-4.3-1.37-5.38.66l-12.33,23.06c-.78,1.47-1.19,3.1-1.19,4.77v65.64c0,1.57.37,3.13,1.07,4.54l12.21,24.32c1.07,2.13,3.97,2.47,5.5.64l31.94-38.15-1.43-22.7Z"/>
  </g>
</svg>