<?xml version="1.0" encoding="UTF-8"?>
<svg id="_레이어_1" data-name="레이어_1" xmlns="http://www.w3.org/2000/svg" version="1.1" viewBox="0 0 500 500">
  <!-- Generator: Adobe Illustrator 29.8.5, SVG Export Plug-In . SVG Version: 2.1.1 Build 2)  -->
  <defs>
    <style>
      .st0 {
        fill: #231815;
      }
    </style>
  </defs>
  <polygon class="st0" points="114.97 133.53 75.79 193.42 113.98 250.9 149.79 193.42 114.97 133.53"/>
  <polygon class="st0" points="188.97 133.53 149.79 193.42 187.98 250.9 223.8 193.42 188.97 133.53"/>
  <polygon class="st0" points="114.97 248.9 75.79 308.78 113.98 366.26 149.79 308.78 114.97 248.9"/>
  <polygon class="st0" points="188.97 248.9 149.79 308.78 187.98 366.26 223.8 308.78 188.97 248.9"/>
  <path class="st0" d="M431.99,111.9l-22.94-4.02c-19.56-1.74-28.27-16.86-28.27-16.86-11.29-13.39,2.26-44.53,2.26-44.53,8.39-21.62,41.23-28.14,41.23-28.14,15.18-4.98,6.8-6.31,6.8-6.31-12.02-4.01-75.37,12.33-75.37,12.33-22.74,2.56-48.59,30.82-48.62,30.85,0,0,0,0,0,0-18.53,14.76-16.98,22.79-16.98,22.79-1.4,4.59,1.27,4.46,1.27,4.46,12.89-9.1,18.21-7.12,18.21-7.12,12.43,2.89,14.57,16.48,14.76,17.98l-.02.28c-2.56,11.7-11.37,10.94-12.55,10.78l-.23-.08c-11.98-6.8-28.56-7.06-28.56-7.06-24.45-1.97-41.17,19.03-45.91,25.82-1.14-1.5-2.76-2.6-4.7-3.01-.41-.12-.86-.16-1.31-.2,0,0,4.7-31,29.82-37.51,0,0,9.73-4.99,20.66,6.05,0,0,2.99-2.74,2-7.73,0,0-8.71-20.98-30.64-27.32,0,0-23.64-8.06-32.52,13.62,0,0-5.81,10.88-7.81,21.92,0,0-11.13,21.43-49.66,17.67,0,0-13.38-2.37-14.81-15.75,0,0-1.43-11.78,14.44-9.86,13.17,1.64.98,15.17.98,15.83,0,0-3.07,3.72,7.89,2.25,0,0,9.86-1.15,12.27-11.29,0,0,3.4-24.05-22.74-23.4,0,0-22.95,1.84-27.81,19.8,0,0-4.74,19.84,6.54,27.85,0,0,8.22,6.5,11.9,7.16v.74h-80.33c-4.43,0-8.02,3.59-8.02,8.02v241.08c0,4.45,3.61,8.06,8.06,8.06h34.25c-7.77,4.08-16.3,16.09-16.3,16.09-12.54,14.75-4.27,37.15-4.05,37.74,0,.02,0,.02.02.05,17.73,42.26,49.76,51.83,49.76,51.83,22.98,12.35,44.25.45,44.25.45h0c21.18-15.32,11.27-35.15,11.27-35.15-4.78-12.89-20.73-11-20.73-11-9.45,2.7-.61,6.43.56,6.9l.23.16c13.68,13.62,4.34,21.29,3.06,22.23l-.31.12c-20.91,1.96-32.77-8.79-33.09-9.08-.02-.02-.02-.01-.03-.03-21.44-19.89-3.92-52.34-3.92-52.34,10.04-23.28,31.51-23.08,31.51-23.08,15.7-.72,23.96,4.86,27.37,8.08.81.76.26,2.07-.85,2.05-28.6-.38-46.34,22.03-47.34,23.33l-.1.16c-10.12,19.01,9.83,31.69,9.83,31.69,13.94,6.92,2.34-5.32,2.34-5.32-7.66-10.64.96-14.26.96-14.26,9.78-6.37,17.96-9.05,20.59-9.81l1.67-.31c13.21-1.07,22.12,1.86,26.79,4.08,2.34,1.11,5.05,1.04,7.3-.24,3.9-2.21,9.72-4.96,9.73-4.97h0c6.9-2.18,26.67-13.44,26.67-13.44,53.11-31.99,64.51-85.14,64.51-85.14,5.5-27.65-6.29-33.66-6.29-33.66-6.07-6.4-18.21-7.4-25.21-7.4-4.06,0-8.09-1.07-11.52-3.25-10.79-6.83-12.68-13.2-12.77-13.51,0-.02,0-.03-.01-.05-4.19-18.3,8.96-28.37,8.96-28.37l17.23-16.25c37.47-31.39,31.23-54.75,31.23-54.75-1.28-28.65-25.41-27.71-25.41-27.71-26.18.43-27.71,23.71-27.71,23.71-3.97,16.81,11.89,22.49,12.19,22.59,14.2,3.53,15.95-7.8,16.11-9.16v-.27c-1.24-8.37-6.79-8.58-9.19-8.27-.62.08-1.21-.41-1.26-1.04-.62-7.37,3.89-9.06,3.89-9.06,5.8-4.17,11.57-1.04,14.81,1.56,1.68,1.35,2.73,3.31,2.88,5.46l.72,9.69c-.68,13.47-13.13,20.06-13.13,20.06-11.91,8.32-24.16,3.39-31.34-1.14-4.88-3.08-8.48-7.83-9.86-13.43-4.24-17.28,6.7-34.53,6.88-34.8,19.41-25.88,50.83-9.65,51.26-9.42,23.23,13.81,17.74,39.54,17.74,39.54-2.52,21.35-14.24,33.79-14.59,34.16l-.04.04-21.5,19.99c-16.71,17.31-12.63,33.01-12.63,33.01-.22,5.46,2.95,7.88,4.86,8.84.67.34,1.45-.05,1.63-.78.76-3.16,3.05-9.4,4.13-12.3.49-1.3,1.75-2.25,3.13-2.09,7.39.89,23.64,15.56,23.64,15.56,9.01,11.18.62-8.59.62-8.59-3.06-5.73-3.26-9.45-2.78-11.68.34-1.57,1.49-2.83,2.97-3.46l10.24-4.3c1.15-.48,2.44-.59,3.64-.23,17.26,5.19,29.72,21.02,29.72,21.02,5.18,10.14,4.94,0,4.94,0-3.5-34.29-19.11-52.82-19.11-52.82-4.96-14.3,6.56-21.05,6.56-21.05,9.73-8.63,37.83,5.62,37.83,5.62,4.97,1.23,2.32-2.72-.49-5.97-3.81-4.41-7.12-9.25-9.39-14.62-7.26-17.16-2.42-27.78-2.42-27.78,6.34-20.47,53.29-25.99,53.29-25.99,7.68-1.55.27-3.56.27-3.56ZM76.09,364.26v-230.73h150.11v230.73H76.09ZM271.62,292.84c4.88,1.63,10.04,1.82,15.14,1.12,8.28-1.13,9.61,3.33,9.61,3.33,5.11,13.64-1.56,37.34-1.57,37.37h0c-13.04,39.29-45.53,52.75-45.53,52.75-25.22,6.12-30.83-4.12-32.07-8.51,4.56,2.62,13.33,5.89,28.17,1.05,0,0,20.17-10.22,21.98-22.52,0,0,3.44-18.54-5.79-25.41,0,0-11.22-9.95-18.09-4.25,0,0-1.87,5.13,6.63,8.21,0,0,5.79,2.89,2.15,14.53,0,0-5.85,10.03-13.34,9.97v-53.69c1.31,2.21,4.79,7.34,16.04,8.9,0,0,5.69-.2,11.22,3.78,3.77,2.71,5.86,7.21,5.95,11.85.03,1.52.01,3.38-.07,5.67l6.09,7.7s.45.89,1.79-2.06c0,0,10.25-15.93,4.11-29.42,0,0-6.15-9.87-17.08-10.18,0,0-11.99-2.44-20.79-12.52l-7.26-8.85v-17.59l7.97,11.44c4.15,8.99,16.16,14.45,24.73,17.32Z"/>
  <path class="st0" d="M328.29,323.55c-.88,3.85-4.33,18.47-7.8,26.99-.5,1.22.41,2.52,1.72,2.52h49.86c.8,0,1.5-.5,1.76-1.25,1.98-5.96,10.16-31.8,8.51-47.92-.12-1.2-1.41-1.91-2.53-1.47l-50.38,19.83c-.57.22-.99.71-1.13,1.31Z"/>
  <path class="st0" d="M313.1,367.06c-1.66,2.83-7.17,11.7-16.06,20.47-.9.89-.71,2.4.42,2.98l33.05,17.12c.67.34,1.47.26,2.04-.22,4.87-4.12,27.06-23.41,32.58-37.06.49-1.21-.36-2.53-1.67-2.57l-48.72-1.59c-.68-.02-1.3.31-1.65.89Z"/>
  <path class="st0" d="M247.54,425.24c6.9-4.35,29.69-18.44,35.07-23.65.62-.6,1.53-.72,2.26-.27l28.2,17.06c1.18.71,1.22,2.4.06,3.14-8,5.08-33.24,20.77-45.54,24.65-.64.2-1.32.01-1.8-.45l-18.52-17.57c-.88-.83-.75-2.26.27-2.91Z"/>
</svg>