<?xml version="1.0" encoding="UTF-8"?>
<svg id="_레이어_1" data-name="레이어_1" xmlns="http://www.w3.org/2000/svg" version="1.1" viewBox="0 0 500 500">
  <!-- Generator: Adobe Illustrator 29.8.5, SVG Export Plug-In . SVG Version: 2.1.1 Build 2)  -->
  <defs>
    <style>
      .st0 {
        fill: #231815;
      }
    </style>
  </defs>
  <g>
    <path class="st0" d="M357.1,159.53l21.76-22.87v-35.92l-123.46-42.37-132.49,44.74v35.7l60.65,72.48,22.24,8.77-1.59,14.27s-2.33,10.08,21.74,4.01c0,0,16.14-8.21,22.3,1.31,0,0,3.64-.75,5.88-2.8V83.42l101.64,30.55,1.32,45.56Z"/>
    <path class="st0" d="M298.05,222.58l24.18-9.9,92.53-113.08-3.82-9.03,26.32-23.7,17.67,11.21-13.95,29.64s-10.18-.31-9.79,5.06c0,0,.93,7.26,12.21,2.96,0,0,21.79-12.33,29.99-40.25,0,0,7.63-27.91,6.47-40.58,0,0,10.87-5.4,9.59,45.22,0,0,5.24,31.63-.75,55.45,0,0-6.67,16.47-21.51,20.01-14.84,3.54-22.56,10.74-22.56,10.74l-30.1,31.25-5.38.26s14.36-21.46,11.84-46.09c0,0-3.5-4.9-7.14-7.42l-55.28,91.92-.23,28.42s-50.76-7.82-60.29-42.11Z"/>
    <path class="st0" d="M201.53,222.58l-24.18-9.9-92.53-113.08,3.82-9.03-26.32-23.7-17.67,11.21,13.95,29.64s10.18-.31,9.79,5.06c0,0-.93,7.26-12.21,2.96,0,0-21.79-12.33-29.99-40.25,0,0-7.63-27.91-6.47-40.58,0,0-10.87-5.4-9.59,45.22,0,0-5.24,31.63.75,55.45,0,0,6.67,16.47,21.51,20.01,14.84,3.54,22.56,10.74,22.56,10.74l30.1,31.25,5.38.26s-14.36-21.46-11.84-46.09c0,0,3.5-4.9,7.14-7.42l55.28,91.92.23,28.42s50.76-7.82,60.29-42.11Z"/>
    <path class="st0" d="M257.7,238.2s27.99,10.06,41.39-.67c0,0,21.65,29.15,50.14,32.71,0,0-9.9,13.06,4.75,29.16l8.05,8.71s-16.23,5.41-33.51-1.45c0,0-20.19-6.99-22.17-11.22l-3.03.26-70.17,99.36,1.46,11.05s-14.18,4.23-17.82-.98c0,0-6.25-5.25-7.98-14.92l9.76-.33,68.9-105.86s-26.22-16.77-29.78-45.83Z"/>
    <path class="st0" d="M212.5,283.88l35,52.34c-3.33,4.68-7.36,12.67-10.19,16.88l-40.65-57.55-3.04-.25c-1.99,4.24-22.18,11.2-22.18,11.2-17.25,6.89-33.49,1.45-33.49,1.45l8.05-8.7c14.64-16.09,4.75-29.14,4.75-29.14,28.49-3.55,50.13-32.73,50.13-32.73,13.41,10.73,41.4.69,41.4.69-3.55,29.07-29.76,45.82-29.76,45.82Z"/>
    <path class="st0" d="M291.16,390.09c-1.74,9.64-7.97,14.9-7.97,14.9-3.66,5.22-17.83.98-17.83.98l1.49-11.06-13.92-19.68,9.72-14.34,18.77,28.84,9.75.36Z"/>
    <path class="st0" d="M219.82,286.61l29.11,47.16,3.17-.55v-89.29s-.66-1.31-2.95,0c0,0-12.47,31.29-29.32,42.67Z"/>
    <path class="st0" d="M169.77,312.22s15.04-.38,26.01-10.41c0,0,32.92,49.41,37.27,51.29l-7.47,17.67s-40.58-26.87-55.81-58.56Z"/>
    <path class="st0" d="M266.51,352.3s42.35-36.18,43.68-45.01l21.17,5.81s-31.34,46.34-56.26,56.14l-8.59-16.94Z"/>
  </g>
  <g>
    <g>
      <path class="st0" d="M448.14,170.81l-9.56,10.17-4.27,31.54,13.84,20.35,20.55-20.76s-15.79-37.98-20.55-41.31Z"/>
      <path class="st0" d="M432.3,221.88l15.59,21.72s20.82-25.41,23.07-25.41c0,0,6.31,19.02,4.78,27.49l-29.47,28.66-19.56-27.67,5.59-24.78Z"/>
      <path class="st0" d="M424.76,256.7s17.56,26.51,18.24,30.47l33.64-28.66s-2.15,34.66-4.42,40.67l-40.67,19.26-16.31-31.49s8.04-21.64,9.52-30.25Z"/>
      <path class="st0" d="M395.02,316.46s11.41-12.64,16.81-22.33c0,0,12.15,32.39,11.9,36.8l45.39-17.54s-9.57,32.39-13.86,36.19l-47.72,9.81-12.51-42.94Z"/>
      <path class="st0" d="M364.54,343.35s20.53-11.92,24.18-20.71l7.91,49.15s46.08-9.43,52.47-9.28c0,0-26.77,41.52-29.05,41.52l-55.51-9.58v-51.1Z"/>
      <path class="st0" d="M296.26,397.99l13.11-1.9,9.41-32.76s28.96-9.31,35.72-13.43c0,0-2.64,49.92-3.49,54.13l58.98,10.03s-36.57,19.98-54.64,25.37l-44.07-23.15-27.27,4.76s-45.13,15.75-60.67,32.34l-10.01,12.93s-7.48,2.32-10.81-6.87c0,0-2.53-14.85,16.57-24.25l42.03-22.63,22.73.3,12.41-14.87Z"/>
    </g>
    <g>
      <path class="st0" d="M51.44,170.81l9.56,10.17,4.27,31.54-13.84,20.35-20.55-20.76s15.79-37.98,20.55-41.31Z"/>
      <path class="st0" d="M67.28,221.88l-15.59,21.72s-20.82-25.41-23.07-25.41c0,0-6.31,19.02-4.78,27.49l29.47,28.66,19.56-27.67-5.59-24.78Z"/>
      <path class="st0" d="M74.82,256.7s-17.56,26.51-18.24,30.47l-33.64-28.66s2.15,34.66,4.42,40.67l40.67,19.26,16.31-31.49s-8.04-21.64-9.52-30.25Z"/>
      <path class="st0" d="M104.56,316.46s-11.41-12.64-16.81-22.33c0,0-12.15,32.39-11.9,36.8l-45.39-17.54s9.57,32.39,13.86,36.19l47.72,9.81,12.51-42.94Z"/>
      <path class="st0" d="M135.03,343.35s-20.53-11.92-24.18-20.71l-7.91,49.15s-46.08-9.43-52.47-9.28c0,0,26.77,41.52,29.05,41.52l55.51-9.58v-51.1Z"/>
      <path class="st0" d="M203.31,397.99l-13.11-1.9-9.41-32.76s-28.96-9.31-35.72-13.43c0,0,2.64,49.92,3.49,54.13l-58.98,10.03s36.57,19.98,54.64,25.37l44.07-23.15,27.27,4.76s45.13,15.75,60.67,32.34l10.01,12.93s7.48,2.32,10.81-6.87c0,0,2.53-14.85-16.57-24.25l-42.03-22.63-22.73.3-12.41-14.87Z"/>
    </g>
  </g>
</svg>