<?xml version="1.0" encoding="UTF-8"?>
<svg id="_레이어_1" data-name="레이어_1" xmlns="http://www.w3.org/2000/svg" version="1.1" viewBox="0 0 500 500">
  <!-- Generator: Adobe Illustrator 29.8.5, SVG Export Plug-In . SVG Version: 2.1.1 Build 2)  -->
  <defs>
    <style>
      .st0 {
        fill: #231815;
      }
    </style>
  </defs>
  <path class="st0" d="M377.04,239.62s10.29-3.33,6.01-21.78c0,0-1.89-11.62-24.5-24,0,0-1.36-1.17-9.9-7.95,0,0-12.9-9.31-13.56-19.74,0,0-2.53-9.71,11.84-16.02,0,0-1.76-7.84-6.89-6.78,0,0-8.78.18-13.67,10.78,0,0-27.06,8.04-32.87-22.42,0,0-5.64-17.58,9.07-22.24,0,0,1.84-2.45-3.38-2.55h-.3c-5.59,0-19.16,5.64-17.27,33.11,0,0,1.17,34.42,34.28,42.99,0,0,8.94,1.73,10.16,6.62v3.78l-3.49,1.17s-7.61,5.11-13,15.22l-3.17-.11-16.71-15.35s-6.6,4.82-2.56,11.07c0,0,12.66,14.18,17.58,19.97,0,0,6.81,8.57,6.41,28.84,0,0-6.73,9.41-11.63,11.44,0,0-1.31,2.48,3.28,2.02,0,0,15.98,1.23,21.44,17.05l-.54,19.71s-6.19,21.09-26.54,25.08c0,0,20.85-33.86-4.25-68.37,0,0-9.97-20.49-37.3-31.38l-6.19-49.31s-7.37-11.62-20.05-9.84c0,0-.43.67,1.28,2.39,0,0,9.01,7.95,9.17,13.17,0,0,1.67,12.82-11.22,4.17,0,0-9.09-12.29-9.82-31.21,0,0-2.72-2.16-3.59,6.2,0,0-5.91,21.54,5.98,34,0,0-7.85,2.87-19.89-13.56,0,0-9.29-11.3-7.56-20.53l.5-16.24c.07-2.18.45-4.34,1.2-6.39,1.83-4.94,6.41-13.18,17.38-17.63,0,0,19.31-6.99,36.25,14.92,0,0,5.54,8.49-3.03,25.06,0,0-.99,4.73,2.93,1.73,0,0,15.19-8.88,11.54-28.15,0,0-4.07-24.93-30.83-29.88,0,0-26.36-5.26-40.97,5.82,0,0-16.2,11.67-23.96,28.25,0,0-6.87,13.11-3.28,29.93,0,0-2.5,25.43,11.14,42.46,0,0,16.95,23.12,30.24,27.26,0,0,6.67,4.6-.34,7,0,0-7.68,2.61-16.62-6.94,0,0-4.28-4.55-.88,5.94,0,0,2.13,4.58,4.42,6.07-.3,0-16.49-.03-22.45-6.92,0,0-17.07-14.98-22.08-29.07,0,0-3.09-7.07-1.17-15.32,0,0-.77-4.25-3.01,3.4,0,0-4.65,11.04,5.64,31.17,0,0,22.61,36.97,42.05,40.7l6.78,2.26,16.84-1.03s-3.94-10.06,1.7-16.28c0,0,11.73-14.6,29.02-11.84,0,0,17.19,1.67,33.79,26.47,0,0,9.05,18.8-9.74,37.96,0,0-7.34,8.59-17.83,7.92,0,0,15.46-10.21,12.5-28.52,0,0,.19-22.03-17.55-24.79,0,0-11.92-.58-13.17,9.92,0,0-.66,1.71,4.78-.29,0,0,8.78-4.29,13.25,5.62,0,0,3.81,18.32-22.79,17.83,0,0-39.34-1.65-67.65-23.09,0,0-28.3-17.66-30.89-38.68,0,0-6.36-42.21-.66-56.48,0,0-1.31-3.22-4.28,4.17,0,0-12.69,23.65-5.86,80.54,0,0,4.37,51.5,50.3,83.37,0,0,8.72,6.49,25.56,12.51,0,0,11.68,4.98,20.57,15.99,0,0,10.14,15.59,27.1,12.82l23.64-1.06s18.19-9.95,18.76-20.57c0,0,2-12.43-7.08-.1,0,0-10.72,12.74-22.88,4.5,0,0-9.47-1.63-4.7-13.59,0,0,10.16-16.28,35.8-11.87,0,0,14.07,2.48,16.86,5.45,0,0,28.91,7.37,37.51-1.71,0,0,22.31-15.32,22.98-43.84,0,0,.58-25.56-9.1-37.8,0,0-6.22-12.64-19.13-25.37,0,0-1.54-23.83,1.81-27.1l6.7-.37s4.21,2.58,13.78,17.61l-.66,8.03s-7.53,5.43-1.38,14.89c0,0,4.97,3.51,9.57,1.73,0,0,1.68-.11-1.15-3.41,0,0-2.66-10.06,2.12-11.51,0,0,7.45-1.63,8.32,7.93v8.44s-.4,1.41-2.26,2.4c0,0,4.23,2.47,8.51-2.61.02-.03.03-.05.06-.08,4.29-5.18,4.39-19.2-1.07-24.24l-.05-.95ZM232.96,172.82c-.38-.14-.64-.42-.58-.58.06-.18.43-.19.83-.05.38.16.64.42.58.59-.06.18-.43.19-.83.03ZM249.28,164.23c-.32.27-.67.37-.79.22-.13-.14.03-.46.35-.74s.67-.37.8-.24c.11.14-.05.48-.37.75ZM123.46,192.96c-.05.42-.24.74-.42.71-.19-.02-.3-.37-.26-.79.06-.42.24-.74.43-.71.18.02.29.37.24.79ZM128.67,269.78s29.74,34.85,71.05,37.82c0,0-7.82,8.44-32.8-.34,0,0-39.1-17.47-38.25-37.48ZM204.79,339.97s-14.69-7.45-22.61-17.61c-.32-.42,34.69,11.54,53.31,5.69,0,0-3.93,18.16-30.7,11.92ZM368.71,226.76c-1.4-.35-2.54-1.5-2.87-2.9-.71-2.98,1.9-5.59,4.91-4.87,1.41.34,2.57,1.5,2.9,2.91.71,3.01-1.96,5.62-4.94,4.87Z"/>
  <path class="st0" d="M249.79,37.5c56.85,0,110.31,22.14,150.51,62.34,40.2,40.2,62.34,93.65,62.34,150.51s-22.14,110.31-62.34,150.51c-40.2,40.2-93.65,62.34-150.51,62.34s-110.31-22.14-150.51-62.34c-40.2-40.2-62.34-93.65-62.34-150.51s22.14-110.31,62.34-150.51c40.2-40.2,93.65-62.34,150.51-62.34M249.79,13.46C118.96,13.46,12.9,119.52,12.9,250.34s106.06,236.89,236.89,236.89,236.89-106.06,236.89-236.89S380.62,13.46,249.79,13.46h0Z"/>
  <path class="st0" d="M249.79,432.87c-100.64,0-182.52-81.88-182.52-182.52S149.14,67.82,249.79,67.82s182.52,81.88,182.52,182.52-81.88,182.52-182.52,182.52ZM249.79,78.63c-94.68,0-171.71,77.03-171.71,171.72s77.03,171.71,171.71,171.71,171.72-77.03,171.72-171.71-77.03-171.72-171.72-171.72Z"/>
  <g>
    <circle class="st0" cx="195.79" cy="65.42" r="16.16"/>
    <circle class="st0" cx="308.25" cy="65.42" r="16.16"/>
    <circle class="st0" cx="387.83" cy="115.65" r="16.16"/>
    <circle class="st0" cx="432.84" cy="190.41" r="16.16"/>
    <circle class="st0" cx="114.68" cy="115.65" r="16.16"/>
    <circle class="st0" cx="69.67" cy="190.41" r="16.16"/>
  </g>
  <g>
    <circle class="st0" cx="306.71" cy="431.68" r="16.16"/>
    <circle class="st0" cx="194.25" cy="431.68" r="16.16"/>
    <circle class="st0" cx="114.68" cy="381.44" r="16.16"/>
    <circle class="st0" cx="69.67" cy="306.68" r="16.16"/>
    <circle class="st0" cx="387.83" cy="381.44" r="16.16"/>
    <circle class="st0" cx="432.84" cy="306.68" r="16.16"/>
  </g>
</svg>