<?xml version="1.0" encoding="UTF-8"?>
<svg id="_레이어_1" data-name="레이어_1" xmlns="http://www.w3.org/2000/svg" version="1.1" viewBox="0 0 500 500">
  <!-- Generator: Adobe Illustrator 29.8.5, SVG Export Plug-In . SVG Version: 2.1.1 Build 2)  -->
  <defs>
    <style>
      .st0 {
        fill: #231815;
      }
    </style>
  </defs>
  <g>
    <path class="st0" d="M238.93,46.98s3.54-2.4,4.05,2.66c.51,5.06-1.73,7.12-3.24,6.97h-5.52v6.52s-.15,4.67,8.28-.95h14.57c8.43,5.62,8.28.95,8.28.95v-6.52h-5.52c-1.5.15-3.74-1.91-3.24-6.97.51-5.06,4.05-2.66,4.05-2.66l14.68,14.17h9.74v-24.17l-23.75-.86c-1.82-.07-2.89-2.08-1.92-3.62l8.09-12.93c.61-.97-.07-2.24-1.22-2.28l-16.49-.55-16.49.55c-1.15.04-1.83,1.31-1.21,2.28l8.09,12.93c.97,1.54-.1,3.56-1.92,3.62l-23.75.86v24.17h9.74l14.68-14.17Z"/>
    <polygon class="st0" points="236.97 96.2 236.97 102.76 249.79 102.76 262.6 102.76 262.6 96.2 249.79 96.2 236.97 96.2"/>
    <polygon class="st0" points="262.6 68.48 258.84 66.4 249.79 66.4 240.74 66.4 236.97 68.48 236.97 82.37 249.79 82.37 262.6 82.37 262.6 68.48"/>
    <polygon class="st0" points="262.6 85.27 249.79 85.27 236.97 85.27 236.97 93.76 249.79 93.76 262.6 93.76 262.6 85.27"/>
    <path class="st0" d="M322.02,127.41c-3.61-3.61-7.98-1.42-7.98-1.42v6.67c.1,1.64-2.41,3.72-2.41,3.72l-43.55,24.83-8.75-4.48v-25.16h11.05l3.27-4.6-4.15-6.12h-6.92v-14.78h-25.63v14.78h-6.92l-4.16,6.12,3.29,4.6h11.04v25.16l-8.75,4.48-43.54-24.83s-2.53-2.09-2.41-3.72v-6.67s-4.38-2.19-7.99,1.42c0,0-4.79,13.01-4.56,22.6,0,0,3.45,17.59,13.09,18.23,0,0,11.22,3.38,11.22,12.85l1.17,25.56,19.71-9.17-6.8-25.37-22.66-12.78-.68-3.9,30.06,15.81,4.1,23.81,9.75,6.64,1.17,4.97h-5.66l-5.08-5.46-22.25,11.12,10.35,13.08s2.34,4.39-4.5,4.88l-6.45,1.74s-1.75,22.77,8.41,35.17l10.63-11.66c.59-.66,1.69-.24,1.69.64v144.61l29.53,83.18,29.53-83.18v-144.61c0-.89,1.09-1.3,1.69-.64l10.63,11.66c10.18-12.41,8.43-35.17,8.43-35.17l-6.47-1.74c-6.83-.49-4.48-4.88-4.48-4.88l10.33-13.08-22.24-11.12-5.08,5.46h-5.67l1.17-4.97,9.77-6.64,4.1-23.81,30.06-15.81-.7,3.9-22.66,12.78-6.8,25.37,19.71,9.17,1.17-25.56c0-9.47,11.22-12.85,11.22-12.85,9.64-.64,13.09-18.23,13.09-18.23.23-9.59-4.56-22.6-4.56-22.6ZM267,220.94l3.2-1.66,5.76,4.35-5.8,6.12-3.48-4.02h-11.05l-3.83,6.07v227.05l-2.01,9.37-2-9.37v-227.05l-3.84-6.07h-11.05l-3.47,4.02-5.81-6.12,5.77-4.35,3.2,1.66h12.01l2.28-5.17v-24.48s-5.48-4.11-5.93-4.56c-.45-.46,8.84-11.25,8.84-11.25,0,0,9.3,10.78,8.85,11.25-.46.45-5.94,4.56-5.94,4.56v24.48l2.28,5.17h12.02Z"/>
  </g>
  <path class="st0" d="M146.13,30.88s9.25-1.19,13.86,10.99l13.17,33.43v17.13s-25.1,9.12-19.82,44.24c0,0-1.7,54.04,41.26,74.16v66.34l-56.16-52.07,18.8-29.57s1.25-3.28-.68-4.98c0,0-1.87-1.44-3.77,1.47l-12.02,19.42-26-5.95,32.59-30.05s.38-2.02-1.08-2.66c0,0-1.46-1.77-3.92.44l-23.92,21.01-24.61-13.03v-3.8s26.07-5.27,43.14-17.29c0,0,3.42-3.12-2.62-3.6,0,0-2.36-.83-11.46,4.79,0,0-22.3,10.56-30.78,9.24l-24.25-19.66-.83-2.78s49.75,1.32,67.26-11.46c0,0,1.62-3.61-3.46-3.75,0,0-36.35,13.31-66.57,8.78l-23.31-23.52-.76-4.53s20.82,7.12,40.68,8.09h49.63s4.86-4.75-1.29-7.88c0,0-66.25,5.83-90.42-6.47l-25.57-29.46.48-8.14s21.08,15.15,57.99,15.52l46.96,2.74s31.98-4.02,34.17-21.93c0,0,4.38-22.17-6.67-35.2Z"/>
  <path class="st0" d="M353.44,30.88s-9.25-1.19-13.86,10.99l-13.17,33.43v17.13s25.1,9.12,19.82,44.24c0,0,1.7,54.04-41.26,74.16v66.34s56.16-52.07,56.16-52.07l-18.8-29.57s-1.25-3.28.68-4.98c0,0,1.87-1.44,3.77,1.47l12.02,19.42,26-5.95-32.59-30.05s-.38-2.02,1.08-2.66c0,0,1.46-1.77,3.92.44l23.92,21.01,24.61-13.03v-3.8s-26.07-5.27-43.14-17.29c0,0-3.42-3.12,2.62-3.6,0,0,2.36-.83,11.46,4.79,0,0,22.3,10.56,30.78,9.24l24.25-19.66.83-2.78s-49.75,1.32-67.26-11.46c0,0-1.62-3.61,3.46-3.75,0,0,36.35,13.31,66.57,8.78l23.31-23.52.76-4.53s-20.82,7.12-40.68,8.09h-49.63s-4.86-4.75,1.29-7.88c0,0,66.25,5.83,90.42-6.47l25.57-29.46-.48-8.14s-21.08,15.15-57.99,15.52l-46.96,2.74s-31.98-4.02-34.17-21.93c0,0-4.38-22.17,6.67-35.2Z"/>
</svg>