<?xml version="1.0" encoding="UTF-8"?>
<svg id="_레이어_1" data-name="레이어_1" xmlns="http://www.w3.org/2000/svg" version="1.1" viewBox="0 0 500 500">
  <!-- Generator: Adobe Illustrator 29.8.5, SVG Export Plug-In . SVG Version: 2.1.1 Build 2)  -->
  <path d="M345.95,252.46s-6.58-19.59-25.45-26.43c0,0-15.12-6.62-12.76-21.96,0,0,.94-13.14-22.02-5-.09.03-.19.07-.27.11-2,1-29.42,14.16-49.44-2.77,0,0-14.92-14.37-22.39-10.23-.24.13-.45.31-.64.5-1.98,2.03-13.96,14.28-19.2,19.64-1.57,1.6-3.71,2.49-5.95,2.46l-15.46-.19c-.69,0-1.34-.29-1.83-.77l-1.88-1.88c-1.49-1.49-4.07-.74-4.45,1.33-.29,1.58-.21,4.02.66,7.78.06.27.09.55.06.83-.28,2.8-1.92,19.45-2.71,27.52-.29,2.9-1.43,5.64-3.3,7.87-5.48,6.54-17.37,20-22.87,20.38,0,0-6.8.31-9.99,9.32,0,0-10.96,40.39,7.43,60.11l12.72,13.83c5.24,5.7,11.49,10.38,18.45,13.79,11,5.38,27.52,13.14,34.61,14.84,1.36.33,2.7-.55,3.02-1.91,1.32-5.59,5.68-20.11,16.37-25.4.93-.46,1.56-1.35,1.56-2.38v-3.98c0-2.09-1.44-3.33-3.04-3.06-9.48,1.64-39.32,3.11-63.98-36.08-4.79-7.61-7.19-16.63-6.19-25.57.47-4.2,1.67-7.96,4.29-9.37.35-.19.75-.25,1.15-.24,1.25.03,4.11.33,6.9,2.2,2.38,1.59,5.22,2.37,8.09,2.28,9.37-.32,28.58-2.18,40.11-11.57,4.75-3.88,10.13-6.89,15.94-8.86,8.92-3.02,21.02-5.98,29.36-3.51,1.78.53,3.5-.89,3.32-2.73-1.01-10.41-.62-35.91,25.17-45.63.15-.06.29-.1.46-.13,1.46-.29,9.89-1.96,14.57-2.89,1.63-.32,3.13.93,3.13,2.59v45.23c0,.31-.05.61-.16.9-.77,2.16-4.62,11.02-16.75,14.01-1.95.48-2.55,2.99-1.11,4.38,6.83,6.54,20,20.91,18.04,32.85-.02.12-.05.24-.08.35-.53,1.73-4.89,15.54-9.75,23.53-1.13,1.85.38,4.2,2.53,3.95,10.19-1.17,31.28-5.73,45.48-23.41,0,0,23.6-21.23,8.25-56.61ZM209.81,249.83c-3.29-2.49-27.29-22.17.3-45.8.04-.03.06-.05.1-.08.52-.42,6.03-4.76,9.83-6.97,1.48-.86,3.37-.1,3.81,1.55,2.35,8.83,9.79,35.69,15.36,43.15.83,1.12.68,2.68-.4,3.56-4.08,3.34-14.03,9.48-28.21,5-.29-.09-.56-.23-.8-.41Z"/>
  <path d="M204.35,298.09s8.26-22.18,42.1-19.8c0,0,17.76,3.03,21.5,12.79,0,0-33.7-12.54-43.57,3.85,0,0-6.11,15.84-16.41,10.07,0,0-4.87-2.26-3.62-6.9Z"/>
  <path d="M138.28,220.14s-19.17-25.27-37.69-15.69c0,0-15.12,9.85-5.08,27.38,0,0,6.89,17.08,28.77,10.04,0,0,7.49-4.94,8.09-8.84v18.77s-26.66,14.35-40.3-5.43c0,0-31.92-30.87-19.63-55.89,0,0,13.19-19.03,13.19-19.63s3.6-31.32,3.6-31.32l3.6,5.39,2.6,17.6c.79,5.33,3.08,10.31,6.63,14.37,4.84,5.54,11.83,12.73,16.48,14,1.96.53,3.82,1.26,5.56,2.31,6.43,3.87,17.97,12.98,14.19,26.94Z"/>
  <path d="M186.57,174.45s-6.47,11.41-11.24,13.12c0,0-40.37-.34-46.33-29.64,0,0-7.18-34.3,6.8-53.76,2.75-3.83,4.64-8.2,5.36-12.86,1.62-10.38,5.1-27.61,10.84-31.83h2.9l1.32,19.54c.41,6.11,3.59,11.69,8.62,15.18,5.48,3.8,12.23,8.65,14.94,11.28,0,0,26.91,20.95,22.48,39.86,0,0-7.84,20.78-27.93,14.48,0,0-8.18-4.43-6.81-8.69,0,0,13.46.17,14.99-6.3,0,0,3.58-12.74-5.93-19.58-2.19-1.58-4.31-3.24-6.08-5.27-1.15-1.32-2.42-2.8-3.46-4.07-1.45-1.77-3.57-2.86-5.86-3.01l-3.68-.25c-3.67-.24-6.73,1.14-8.55,3.71-4.23,5.97-10.56,17.69-5.79,29.49,0,0,4.18,10.59,11.66,18.42,4.14,4.33,9.66,7.08,15.59,7.92l16.18,2.28Z"/>
  <path d="M233.75,18.79h8.27c1.87,0,3.67.75,4.96,2.1,9.33,9.68,47.3,50.83,49.93,81.91,0,0,14.83,72.19-31.58,78.85,0,0-27.48,4.64-35.32-24.74-1.22-4.57-.84-9.47,1.16-13.76,4.3-9.23,14.14-24.4,30.51-18.44,0,0-21.88,8.47-18.95,23.81.66,3.44,3.31,6.22,6.65,7.3,6.12,1.97,16.74,2.27,24.54-14.35,0,0,13.97-33.09-7.09-47.91,0,0-18.69-12.25-34.38,24.92,0,0-1.29-26.43,10.74-38.46l6.02-7.74c1.95-2.5,3.02-5.58,3.07-8.75l.24-18.14c.09-6.35-2.09-12.54-6.22-17.37-3.83-4.49-8.71-9.12-12.57-9.23Z"/>
  <path d="M322.49,187.56s-12.25-24.18-3.65-31.48c0,0,22.06-26.49,36.59-32.77,0,0,7-2.33,7.36-11.3,0,0,1.26-25.3-14.17-36.78l2.54-3.41s23.61,13.6,36.9,43.4c1.3,2.91,2.01,6.06,2.01,9.24v33.07c0,5.14.71,10.28,2.34,15.15,1.65,4.94,3.01,12.13-.54,17.19,0,0-17.76,33.37-44.14,16.87,0,0-13.45-10.28-10.51-25.54.95-4.92,3.72-9.28,7.34-12.75,4.56-4.36,11.72-9.52,16.63-4.96,0,0-19.02,11.84-10.77,25.12,0,0,12.77,20.53,28.66-13.52.75-1.61,1.25-3.33,1.5-5.09,1-7.19,1.49-24.93-17.78-26.78,0,0-18.48-3.05-28.17,17.22,0,0-10.79,16.36-12.12,27.11Z"/>
  <path d="M59.41,292.96c6.56,14.6,28.44,58.15,62.71,75.26,2.83,1.41,5.79,2.5,8.85,3.31,10.13,2.68,40.94,11.83,59.77,28.58,0,0,27.4,20.96,15.66,47.21l-15.66,22.34s2.4-19.59.31-28.97c-.12-.52-.86-.54-.99-.02-2.36,8.94-14.39,46.5-48.13,37.97l-2.53-1.15s30.17-18.88,35.23-39.84c0,0,1.61-6.91-11.05,2.07,0,0-28.63,37.03-67.58,9.71-1.42-.99-.83-3.24.89-3.39,13.53-1.18,50.8-5.75,58.96-20.79.25-.46.28-1,.12-1.5l-1.98-6.26c-.38-1.19-1.75-1.7-2.81-1.04-2.93,1.84-8.88,5.18-17.06,7.78-24.66,7.84-51.65,1.27-70.82-16.11-8.72-7.91-18.75-18.25-22.22-26.61-.95-2.29,1.76-4.36,3.77-2.91,13.36,9.65,52.4,33.4,98.7,20.83l-.78-2.8c-.22-.79-.9-1.35-1.72-1.38-8.82-.32-58.86-4.26-83.87-51.84-2.03-3.87-3.11-8.17-3.26-12.53-.35-9.67-.67-27.92,1.32-37.41.44-2.12,3.29-2.48,4.18-.5Z"/>
  <path d="M438.12,263.91c-12.19-1.4-37.26-1.87-54.5,14.19,0,0-13.49,13.29-24.79,37.23-1.63,3.46-3.96,6.55-6.8,9.12-9.4,8.51-31.05,25.96-47.3,22.65,0,0-30.71-2.5-52.26,18.39-3.5,3.39-5.74,7.89-6.45,12.71l-1.55,10.51s-8.51-6.27-13.42-3.34c0,0-7.4,40.54,2.24,60.01,0,0,18.15,31.82,55.54,30.46,0,0,43.44-1.13,54.66-19.25l3.12-2.27-12.76-.66s17.04-12.76,12.76-33.14c0,0,18.37.22,21.3-5.39v11.21s-11.44,4.69-13.45,11.62c0,0,44.14-13.64,56.23-51.95,0,0,17.92-41.9,9.86-74.6l-4.03,2.49s-6.76-28.88,21.86-34.81c6.06-1.25,12.47.74,16.32,5.59,1.46,1.83,2.31,3.73,1.48,5.22.35-.59,5.05-8.62-2.07-17.51-3.91-4.88-9.77-7.78-15.98-8.49ZM388.9,386.73c-8.79,8.92-25.54,21.38-46.63,15.42,0,0-24.73-31.38-51.48-10.02,0,0-24.23,11.1-14.05,36.49,1.77,4.42,5.51,7.76,10.02,9.26,6.67,2.21,16.37,4.22,19.99-1.17.28-.42-24.75-7.42-13.55-22.97,3.73-5.18,9.72-8.31,16.09-8.76,6.78-.48,15.25,1,17.9,10.56,0,0,16.92,22.46-11.15,39.76,0,0-16.37,13.34-35.94,10.02-14.42-2.45-25.52-13.94-29.08-28.13-3.38-13.5-4.76-34.33,9.48-54.16,0,0,32.51-39.19,54.06-21.93,0,0,13.99,3.99,27.56-7.33,2.22-1.85,4.61-3.5,7.17-4.85,6.72-3.54,20.15-12.74,23.7-31.06.56-2.89,1.73-5.61,3.21-8.15,3.31-5.66,9.27-13.59,15.98-12.01,1.36.32,2.41,1.42,2.81,2.76.88,2.99,1.71,8.71-3.33,12.16,0,0-8.53,2.4-5.97,22.2.33,2.52.27,5.07-.04,7.59-.5,4.04-3.18,10.06-3.74,2.73,0,0-1.59,13.57,7.71.37,0,0,5.2-10.77,6.05-.38v24.75c0,6.28-2.36,12.37-6.76,16.84Z"/>
</svg>